<svg xmlns="http://www.w3.org/2000/svg" xmlns:xlink="http://www.w3.org/1999/xlink" width="800" zoomAndPan="magnify" viewBox="0 0 600 599.999999" height="800" preserveAspectRatio="xMidYMid meet" version="1.0"><defs><clipPath id="7ee9bcbf6f"><path d="M 143.746094 137.113281 L 456.253906 137.113281 L 456.253906 463 L 143.746094 463 Z M 143.746094 137.113281 " clip-rule="nonzero"/></clipPath><clipPath id="3fd1b7cdc0"><path d="M 153.496094 137.113281 L 446.503906 137.113281 C 451.890625 137.113281 456.253906 141.476562 456.253906 146.863281 L 456.253906 453.136719 C 456.253906 458.523438 451.890625 462.886719 446.503906 462.886719 L 153.496094 462.886719 C 148.109375 462.886719 143.746094 458.523438 143.746094 453.136719 L 143.746094 146.863281 C 143.746094 141.476562 148.109375 137.113281 153.496094 137.113281 Z M 153.496094 137.113281 " clip-rule="nonzero"/></clipPath><clipPath id="b0d6664c31"><path d="M 0.746094 0.113281 L 313.253906 0.113281 L 313.253906 325.960938 L 0.746094 325.960938 Z M 0.746094 0.113281 " clip-rule="nonzero"/></clipPath><clipPath id="4276528148"><path d="M 10.496094 0.113281 L 303.503906 0.113281 C 308.890625 0.113281 313.253906 4.476562 313.253906 9.863281 L 313.253906 316.136719 C 313.253906 321.523438 308.890625 325.886719 303.503906 325.886719 L 10.496094 325.886719 C 5.109375 325.886719 0.746094 321.523438 0.746094 316.136719 L 0.746094 9.863281 C 0.746094 4.476562 5.109375 0.113281 10.496094 0.113281 Z M 10.496094 0.113281 " clip-rule="nonzero"/></clipPath><clipPath id="531c6f180b"><rect x="0" width="314" y="0" height="326"/></clipPath><clipPath id="57b6cfef8e"><path d="M 160.902344 261.546875 L 439.582031 261.546875 L 439.582031 441.546875 L 160.902344 441.546875 Z M 160.902344 261.546875 " clip-rule="nonzero"/></clipPath><clipPath id="886a8ce8c8"><path d="M 0.902344 0.546875 L 279.582031 0.546875 L 279.582031 180.546875 L 0.902344 180.546875 Z M 0.902344 0.546875 " clip-rule="nonzero"/></clipPath><clipPath id="b4aff9b7a4"><rect x="0" width="280" y="0" height="181"/></clipPath><clipPath id="7acf3469f1"><path d="M 177.253906 330.136719 L 210.117188 330.136719 L 210.117188 344.5 L 177.253906 344.5 Z M 177.253906 330.136719 " clip-rule="nonzero"/></clipPath><clipPath id="47a2da1384"><path d="M 0.253906 0.136719 L 33.117188 0.136719 L 33.117188 14.5 L 0.253906 14.5 Z M 0.253906 0.136719 " clip-rule="nonzero"/></clipPath><clipPath id="8ffca769e6"><rect x="0" width="34" y="0" height="15"/></clipPath><clipPath id="2c8a481329"><path d="M 210.117188 357.117188 L 264.265625 357.117188 L 264.265625 404.761719 L 210.117188 404.761719 Z M 210.117188 357.117188 " clip-rule="nonzero"/></clipPath><clipPath id="9a9b15b9c2"><path d="M 0.117188 0.117188 L 54.265625 0.117188 L 54.265625 47.761719 L 0.117188 47.761719 Z M 0.117188 0.117188 " clip-rule="nonzero"/></clipPath><clipPath id="cb5c5cde36"><rect x="0" width="55" y="0" height="48"/></clipPath><clipPath id="9608bcfd75"><path d="M 210.117188 417.511719 L 291.257812 417.511719 L 291.257812 432.492188 L 210.117188 432.492188 Z M 210.117188 417.511719 " clip-rule="nonzero"/></clipPath><clipPath id="7796b2ddd0"><path d="M 0.117188 0.511719 L 81.257812 0.511719 L 81.257812 15.492188 L 0.117188 15.492188 Z M 0.117188 0.511719 " clip-rule="nonzero"/></clipPath><clipPath id="05fde30eba"><rect x="0" width="82" y="0" height="16"/></clipPath><clipPath id="487583433a"><path d="M 331.960938 369.867188 L 379.6875 369.867188 L 379.6875 417.511719 L 331.960938 417.511719 Z M 331.960938 369.867188 " clip-rule="nonzero"/></clipPath><clipPath id="4edc564569"><path d="M 0.960938 0.867188 L 48.6875 0.867188 L 48.6875 48.511719 L 0.960938 48.511719 Z M 0.960938 0.867188 " clip-rule="nonzero"/></clipPath><clipPath id="395d31fdaf"><rect x="0" width="49" y="0" height="49"/></clipPath><clipPath id="42ca604d7b"><path d="M 403.855469 330.136719 L 429.28125 330.136719 L 429.28125 353.960938 L 403.855469 353.960938 Z M 403.855469 330.136719 " clip-rule="nonzero"/></clipPath><clipPath id="2438f3ee60"><path d="M 0.855469 0.136719 L 26.28125 0.136719 L 26.28125 23.960938 L 0.855469 23.960938 Z M 0.855469 0.136719 " clip-rule="nonzero"/></clipPath><clipPath id="771c072310"><rect x="0" width="27" y="0" height="24"/></clipPath><clipPath id="071787f1d5"><path d="M 160.902344 208.082031 L 291.257812 208.082031 L 291.257812 263.167969 L 160.902344 263.167969 Z M 160.902344 208.082031 " clip-rule="nonzero"/></clipPath><clipPath id="c51d3a785b"><path d="M 0.902344 0.0820312 L 131.257812 0.0820312 L 131.257812 55.167969 L 0.902344 55.167969 Z M 0.902344 0.0820312 " clip-rule="nonzero"/></clipPath><clipPath id="fcbf8308da"><rect x="0" width="132" y="0" height="56"/></clipPath><clipPath id="59ebdf00a4"><path d="M 315.261719 208.082031 L 439.582031 208.082031 L 439.582031 263.167969 L 315.261719 263.167969 Z M 315.261719 208.082031 " clip-rule="nonzero"/></clipPath><clipPath id="ab566aaac9"><path d="M 0.261719 0.0820312 L 124.582031 0.0820312 L 124.582031 55.167969 L 0.261719 55.167969 Z M 0.261719 0.0820312 " clip-rule="nonzero"/></clipPath><clipPath id="b09271f742"><rect x="0" width="125" y="0" height="56"/></clipPath><clipPath id="cdf681ff32"><path d="M 160.902344 155.070312 L 439.582031 155.070312 L 439.582031 210.726562 L 160.902344 210.726562 Z M 160.902344 155.070312 " clip-rule="nonzero"/></clipPath><clipPath id="8fbc0abf23"><path d="M 0.902344 0.0703125 L 279.582031 0.0703125 L 279.582031 55.726562 L 0.902344 55.726562 Z M 0.902344 0.0703125 " clip-rule="nonzero"/></clipPath><clipPath id="c59985e1ac"><rect x="0" width="280" y="0" height="56"/></clipPath><clipPath id="4b189c4c4b"><path d="M 270.1875 155.070312 L 342.71875 155.070312 L 342.71875 266.378906 L 270.1875 266.378906 Z M 270.1875 155.070312 " clip-rule="nonzero"/></clipPath><clipPath id="88215e5b73"><path d="M 0.1875 0.0703125 L 72.71875 0.0703125 L 72.71875 111.378906 L 0.1875 111.378906 Z M 0.1875 0.0703125 " clip-rule="nonzero"/></clipPath><clipPath id="f6c86b8200"><rect x="0" width="73" y="0" height="112"/></clipPath><clipPath id="f802142a19"><path d="M 160.417969 253.199219 L 439.582031 253.199219 L 439.582031 273.132812 L 160.417969 273.132812 Z M 160.417969 253.199219 " clip-rule="nonzero"/></clipPath><clipPath id="f3c18897d8"><path d="M 0.417969 0.199219 L 279.582031 0.199219 L 279.582031 20.132812 L 0.417969 20.132812 Z M 0.417969 0.199219 " clip-rule="nonzero"/></clipPath><clipPath id="37e481ce6d"><rect x="0" width="280" y="0" height="21"/></clipPath><clipPath id="a337e6ddc0"><path d="M 185.511719 155.070312 L 250.6875 155.070312 L 250.6875 188.183594 L 185.511719 188.183594 Z M 185.511719 155.070312 " clip-rule="nonzero"/></clipPath><clipPath id="9827898717"><path d="M 0.511719 0.0703125 L 65.6875 0.0703125 L 65.6875 33.183594 L 0.511719 33.183594 Z M 0.511719 0.0703125 " clip-rule="nonzero"/></clipPath><clipPath id="480ae67e08"><rect x="0" width="66" y="0" height="34"/></clipPath><clipPath id="d4c772c813"><path d="M 362.21875 155.070312 L 427.394531 155.070312 L 427.394531 188.183594 L 362.21875 188.183594 Z M 362.21875 155.070312 " clip-rule="nonzero"/></clipPath><clipPath id="b35cce639a"><path d="M 0.21875 0.0703125 L 65.394531 0.0703125 L 65.394531 33.183594 L 0.21875 33.183594 Z M 0.21875 0.0703125 " clip-rule="nonzero"/></clipPath><clipPath id="ffd02b2307"><rect x="0" width="66" y="0" height="34"/></clipPath></defs><g clip-path="url(#7ee9bcbf6f)"><g clip-path="url(#3fd1b7cdc0)"><g transform="matrix(1, 0, 0, 1, 143, 137)"><g clip-path="url(#531c6f180b)"><g clip-path="url(#b0d6664c31)"><g clip-path="url(#4276528148)"><path fill="#444a5e" d="M 0.746094 0.113281 L 313.253906 0.113281 L 313.253906 326.050781 L 0.746094 326.050781 Z M 0.746094 0.113281 " fill-opacity="1" fill-rule="nonzero"/></g></g></g></g></g></g><g clip-path="url(#57b6cfef8e)"><g transform="matrix(1, 0, 0, 1, 160, 261)"><g clip-path="url(#b4aff9b7a4)"><g clip-path="url(#886a8ce8c8)"><path fill="#d37d4e" d="M 0.902344 0.546875 L 279.339844 0.546875 L 279.339844 180.546875 L 0.902344 180.546875 Z M 0.902344 0.546875 " fill-opacity="1" fill-rule="nonzero"/></g></g></g></g><g clip-path="url(#7acf3469f1)"><g transform="matrix(1, 0, 0, 1, 177, 330)"><g clip-path="url(#8ffca769e6)"><g clip-path="url(#47a2da1384)"><path fill="#ffcb38" d="M 0.253906 0.136719 L 33.128906 0.136719 L 33.128906 14.5 L 0.253906 14.5 Z M 0.253906 0.136719 " fill-opacity="1" fill-rule="nonzero"/></g></g></g></g><g clip-path="url(#2c8a481329)"><g transform="matrix(1, 0, 0, 1, 210, 357)"><g clip-path="url(#cb5c5cde36)"><g clip-path="url(#9a9b15b9c2)"><path fill="#ffcb38" d="M 0.117188 0.117188 L 54.28125 0.117188 L 54.28125 47.761719 L 0.117188 47.761719 Z M 0.117188 0.117188 " fill-opacity="1" fill-rule="nonzero"/></g></g></g></g><g clip-path="url(#9608bcfd75)"><g transform="matrix(1, 0, 0, 1, 210, 417)"><g clip-path="url(#05fde30eba)"><g clip-path="url(#7796b2ddd0)"><path fill="#603400" d="M 0.117188 0.511719 L 81.269531 0.511719 L 81.269531 15.492188 L 0.117188 15.492188 Z M 0.117188 0.511719 " fill-opacity="1" fill-rule="nonzero"/></g></g></g></g><g clip-path="url(#487583433a)"><g transform="matrix(1, 0, 0, 1, 331, 369)"><g clip-path="url(#395d31fdaf)"><g clip-path="url(#4edc564569)"><path fill="#603400" d="M 0.960938 0.867188 L 48.609375 0.867188 L 48.609375 48.511719 L 0.960938 48.511719 Z M 0.960938 0.867188 " fill-opacity="1" fill-rule="nonzero"/></g></g></g></g><g clip-path="url(#42ca604d7b)"><g transform="matrix(1, 0, 0, 1, 403, 330)"><g clip-path="url(#771c072310)"><g clip-path="url(#2438f3ee60)"><path fill="#603400" d="M 0.855469 0.136719 L 26.261719 0.136719 L 26.261719 23.960938 L 0.855469 23.960938 Z M 0.855469 0.136719 " fill-opacity="1" fill-rule="nonzero"/></g></g></g></g><g clip-path="url(#071787f1d5)"><g transform="matrix(1, 0, 0, 1, 160, 208)"><g clip-path="url(#fcbf8308da)"><g clip-path="url(#c51d3a785b)"><path fill="#8c94ae" d="M 0.902344 0.0820312 L 131.296875 0.0820312 L 131.296875 55.167969 L 0.902344 55.167969 Z M 0.902344 0.0820312 " fill-opacity="1" fill-rule="nonzero"/></g></g></g></g><g clip-path="url(#59ebdf00a4)"><g transform="matrix(1, 0, 0, 1, 315, 208)"><g clip-path="url(#b09271f742)"><g clip-path="url(#ab566aaac9)"><path fill="#8c94ae" d="M 0.261719 0.0820312 L 124.632812 0.0820312 L 124.632812 55.167969 L 0.261719 55.167969 Z M 0.261719 0.0820312 " fill-opacity="1" fill-rule="nonzero"/></g></g></g></g><g clip-path="url(#cdf681ff32)"><g transform="matrix(1, 0, 0, 1, 160, 155)"><g clip-path="url(#c59985e1ac)"><g clip-path="url(#8fbc0abf23)"><path fill="#cfcfcf" d="M 0.902344 0.0703125 L 279.605469 0.0703125 L 279.605469 55.726562 L 0.902344 55.726562 Z M 0.902344 0.0703125 " fill-opacity="1" fill-rule="nonzero"/></g></g></g></g><g clip-path="url(#4b189c4c4b)"><g transform="matrix(1, 0, 0, 1, 270, 155)"><g clip-path="url(#f6c86b8200)"><g clip-path="url(#88215e5b73)"><path fill="#5a6074" d="M 0.1875 0.0703125 L 72.71875 0.0703125 L 72.71875 111.414062 L 0.1875 111.414062 Z M 0.1875 0.0703125 " fill-opacity="1" fill-rule="nonzero"/></g></g></g></g><g clip-path="url(#f802142a19)"><g transform="matrix(1, 0, 0, 1, 160, 253)"><g clip-path="url(#37e481ce6d)"><g clip-path="url(#f3c18897d8)"><path fill="#8b4b00" d="M 0.417969 0.199219 L 279.570312 0.199219 L 279.570312 20.132812 L 0.417969 20.132812 Z M 0.417969 0.199219 " fill-opacity="1" fill-rule="nonzero"/></g></g></g></g><g clip-path="url(#a337e6ddc0)"><g transform="matrix(1, 0, 0, 1, 185, 155)"><g clip-path="url(#480ae67e08)"><g clip-path="url(#9827898717)"><path fill="#8c94ae" d="M 0.511719 0.0703125 L 65.703125 0.0703125 L 65.703125 33.183594 L 0.511719 33.183594 Z M 0.511719 0.0703125 " fill-opacity="1" fill-rule="nonzero"/></g></g></g></g><g clip-path="url(#d4c772c813)"><g transform="matrix(1, 0, 0, 1, 362, 155)"><g clip-path="url(#ffd02b2307)"><g clip-path="url(#b35cce639a)"><path fill="#8c94ae" d="M 0.21875 0.0703125 L 65.40625 0.0703125 L 65.40625 33.183594 L 0.21875 33.183594 Z M 0.21875 0.0703125 " fill-opacity="1" fill-rule="nonzero"/></g></g></g></g></svg>