<svg xmlns="http://www.w3.org/2000/svg" xmlns:xlink="http://www.w3.org/1999/xlink" width="800" zoomAndPan="magnify" viewBox="0 0 600 599.999999" height="800" preserveAspectRatio="xMidYMid meet" version="1.0"><path fill="#916b4e" d="M 295.585938 410.746094 L 295.722656 402.839844 L 247.316406 402.839844 L 247.316406 408.292969 Z M 295.585938 410.746094 " fill-opacity="1" fill-rule="nonzero"/><path fill="#aa7e5c" d="M 295.585938 429.15625 L 295.585938 410.746094 L 247.316406 408.292969 L 251.542969 415.519531 L 247.316406 415.519531 C 244.042969 417.15625 241.089844 419.746094 238.453125 423.292969 L 238.453125 429.15625 Z M 295.585938 429.15625 " fill-opacity="1" fill-rule="nonzero"/><path fill="#e0c1a2" d="M 295.722656 402.839844 L 295.722656 393.566406 L 247.316406 393.566406 L 247.316406 402.839844 Z M 295.722656 402.839844 " fill-opacity="1" fill-rule="nonzero"/><path fill="#eccfb1" d="M 288.765625 373.25 C 284.039062 368.703125 278.3125 366.429688 271.585938 366.429688 L 271.449219 366.429688 C 264.722656 366.429688 259.042969 368.703125 254.40625 373.25 C 249.679688 377.882812 247.316406 383.519531 247.316406 390.15625 L 247.316406 393.566406 L 295.722656 393.566406 L 295.722656 390.15625 C 295.722656 383.519531 293.402344 377.882812 288.765625 373.25 Z M 288.765625 373.25 " fill-opacity="1" fill-rule="nonzero"/><path fill="#916b4e" d="M 304.449219 410.746094 L 304.3125 402.839844 L 352.71875 402.839844 L 352.71875 408.292969 Z M 304.449219 410.746094 " fill-opacity="1" fill-rule="nonzero"/><path fill="#aa7e5c" d="M 304.449219 429.15625 L 304.449219 410.746094 L 352.71875 408.292969 L 348.492188 415.519531 L 352.71875 415.519531 C 355.988281 417.15625 358.945312 419.746094 361.582031 423.292969 L 361.582031 429.15625 Z M 304.449219 429.15625 " fill-opacity="1" fill-rule="nonzero"/><path fill="#e0c1a2" d="M 304.3125 402.839844 L 304.3125 393.566406 L 352.71875 393.566406 L 352.71875 402.839844 Z M 304.3125 402.839844 " fill-opacity="1" fill-rule="nonzero"/><path fill="#eccfb1" d="M 311.265625 373.25 C 315.992188 368.703125 321.71875 366.429688 328.445312 366.429688 L 328.582031 366.429688 C 335.308594 366.429688 340.992188 368.703125 345.628906 373.25 C 350.355469 377.882812 352.71875 383.519531 352.71875 390.15625 L 352.71875 393.566406 L 304.3125 393.566406 L 304.3125 390.15625 C 304.3125 383.519531 306.628906 377.882812 311.265625 373.25 Z M 311.265625 373.25 " fill-opacity="1" fill-rule="nonzero"/><path fill="#b8824d" d="M 354.625 389.066406 L 354.625 378.019531 L 248.269531 378.019531 L 248.269531 389.066406 L 354.625 389.066406 M 269.8125 311.066406 C 268.632812 308.976562 267.269531 306.792969 265.722656 304.519531 L 248.269531 304.519531 L 248.269531 352.113281 C 271.722656 348.113281 280.359375 337.519531 274.175781 320.339844 L 267.90625 317.066406 C 268.179688 314.976562 268.8125 312.976562 269.8125 311.066406 M 354.625 304.519531 L 337.992188 304.519531 C 340.535156 310.25 341.082031 316.25 339.628906 322.519531 C 337.445312 333.703125 342.445312 340.839844 354.625 343.929688 Z M 354.625 304.519531 " fill-opacity="1" fill-rule="nonzero"/><path fill="#e0c79a" d="M 307.175781 336.976562 L 337.992188 304.519531 L 274.722656 304.519531 Z M 307.175781 336.976562 " fill-opacity="1" fill-rule="nonzero"/><path fill="#637480" d="M 339.628906 322.519531 C 341.082031 316.25 340.535156 310.25 337.992188 304.519531 L 307.175781 336.976562 L 339.628906 322.519531 M 269.8125 311.066406 C 268.8125 312.976562 268.179688 314.976562 267.90625 317.066406 L 274.175781 320.339844 L 307.175781 336.976562 L 274.722656 304.519531 C 272.632812 306.519531 270.996094 308.703125 269.8125 311.066406 Z M 269.8125 311.066406 " fill-opacity="1" fill-rule="nonzero"/><path fill="#7e95a3" d="M 274.175781 320.339844 C 280.359375 337.519531 271.722656 348.113281 248.269531 352.113281 L 248.269531 378.019531 L 254.953125 378.019531 L 274.722656 364.246094 L 284.8125 378.019531 L 354.625 378.019531 L 354.625 343.929688 C 342.445312 340.839844 337.445312 333.703125 339.628906 322.519531 L 307.175781 336.976562 L 274.175781 320.339844 M 310.3125 346.792969 C 309.402344 345.976562 308.949219 345.019531 308.949219 343.929688 C 308.949219 342.839844 309.402344 341.839844 310.3125 340.929688 C 311.128906 340.113281 312.085938 339.703125 313.175781 339.703125 C 314.265625 339.703125 315.21875 340.113281 316.039062 340.929688 C 316.855469 341.839844 317.265625 342.839844 317.265625 343.929688 C 317.265625 345.019531 316.855469 345.976562 316.039062 346.792969 C 315.21875 347.613281 314.265625 348.019531 313.175781 348.019531 C 312.085938 348.019531 311.128906 347.613281 310.3125 346.792969 M 306.628906 358.519531 C 313.175781 358.519531 318.765625 359.113281 323.402344 360.292969 C 327.582031 361.476562 329.902344 362.792969 330.355469 364.246094 L 283.039062 364.246094 C 283.402344 362.792969 285.675781 361.476562 289.859375 360.292969 C 294.496094 359.113281 300.085938 358.519531 306.628906 358.519531 M 265.722656 304.519531 C 267.269531 306.792969 268.632812 308.976562 269.8125 311.066406 C 270.996094 308.703125 272.632812 306.519531 274.722656 304.519531 Z M 265.722656 304.519531 " fill-opacity="1" fill-rule="nonzero"/><path fill="#738895" d="M 323.402344 360.292969 C 318.765625 359.113281 313.175781 358.519531 306.628906 358.519531 C 300.085938 358.519531 294.496094 359.113281 289.859375 360.292969 C 285.675781 361.476562 283.402344 362.792969 283.039062 364.246094 L 330.355469 364.246094 C 329.902344 362.792969 327.582031 361.476562 323.402344 360.292969 Z M 323.402344 360.292969 " fill-opacity="1" fill-rule="nonzero"/><path fill="#e7e2da" d="M 308.949219 343.929688 C 308.949219 345.019531 309.402344 345.976562 310.3125 346.792969 C 311.128906 347.613281 312.085938 348.019531 313.175781 348.019531 C 314.265625 348.019531 315.21875 347.613281 316.039062 346.792969 C 316.855469 345.976562 317.265625 345.019531 317.265625 343.929688 C 317.265625 342.839844 316.855469 341.839844 316.039062 340.929688 C 315.21875 340.113281 314.265625 339.703125 313.175781 339.703125 C 312.085938 339.703125 311.128906 340.113281 310.3125 340.929688 C 309.402344 341.839844 308.949219 342.839844 308.949219 343.929688 M 274.722656 364.246094 L 254.953125 378.019531 L 284.8125 378.019531 Z M 274.722656 364.246094 " fill-opacity="1" fill-rule="nonzero"/><path fill="#e7e2da" d="M 259.410156 346.34375 C 259.503906 346.195312 259.589844 346.050781 259.667969 345.902344 L 222.136719 328.964844 C 218.132812 331.878906 216.726562 336.257812 217.914062 342.101562 L 220.804688 342.367188 Z M 259.410156 346.34375 " fill-opacity="1" fill-rule="nonzero"/><path fill="#637480" d="M 260.921875 346.492188 L 264.117188 339.832031 L 225.367188 322.1875 C 222.828125 322.527344 221.753906 324.785156 222.136719 328.964844 L 259.667969 345.902344 Z M 260.921875 346.492188 " fill-opacity="1" fill-rule="nonzero"/><path fill="#ffe0b1" d="M 220.804688 342.367188 C 217.820312 350.78125 215.484375 359.328125 213.796875 368.007812 C 217.921875 374.039062 223.753906 378.789062 231.296875 382.253906 C 242.886719 371.996094 252.257812 360.027344 259.410156 346.34375 Z M 220.804688 342.367188 " fill-opacity="1" fill-rule="nonzero"/><path fill="#7e95a3" d="M 268.617188 316.707031 C 266.515625 311.554688 262.773438 307.792969 257.386719 305.414062 L 257.253906 305.378906 C 256.242188 304.9375 255.253906 304.589844 254.289062 304.328125 C 245.484375 301.714844 235.84375 307.667969 225.367188 322.1875 L 264.117188 339.832031 L 268.121094 331.734375 C 270.535156 326.945312 270.699219 321.933594 268.617188 316.707031 Z M 268.617188 316.707031 " fill-opacity="1" fill-rule="nonzero"/><path fill="#ffe0b1" d="M 251.4375 387.378906 C 250.605469 377.839844 248.558594 370.558594 245.289062 365.542969 L 218.070312 365.449219 C 215.820312 365.410156 214.660156 366.417969 214.578125 368.46875 L 214.585938 370.023438 C 213.636719 392.542969 219.640625 403.847656 232.605469 403.929688 C 237.191406 404.03125 241.882812 403.546875 246.6875 402.480469 C 249.871094 401.828125 251.484375 400.378906 251.523438 398.128906 L 251.566406 397.4375 C 251.546875 394.703125 251.503906 392.054688 251.4375 389.496094 L 251.402344 389.628906 L 251.4375 387.378906 M 217.875 375.136719 C 218 374.324219 219.234375 373.574219 221.582031 372.886719 C 223.84375 372.171875 226.609375 371.691406 229.878906 371.4375 C 233.207031 371.292969 235.964844 371.375 238.140625 371.675781 C 240.472656 372.109375 241.585938 372.691406 241.484375 373.417969 C 241.449219 374.253906 240.300781 375.03125 238.039062 375.742188 C 235.753906 376.542969 232.9375 377.054688 229.582031 377.285156 C 226.3125 377.539062 223.558594 377.460938 221.316406 377.046875 C 218.984375 376.613281 217.839844 375.976562 217.875 375.136719 Z M 217.875 375.136719 " fill-opacity="1" fill-rule="nonzero"/><path fill="#e7cba0" d="M 221.582031 372.886719 C 219.234375 373.574219 218 374.324219 217.875 375.136719 C 217.839844 375.976562 218.984375 376.613281 221.316406 377.046875 C 223.558594 377.460938 226.3125 377.539062 229.582031 377.285156 C 232.9375 377.054688 235.753906 376.542969 238.039062 375.742188 C 240.300781 375.03125 241.449219 374.253906 241.484375 373.417969 C 241.585938 372.691406 240.472656 372.109375 238.140625 371.675781 C 235.964844 371.375 233.207031 371.292969 229.878906 371.4375 C 226.609375 371.691406 223.84375 372.171875 221.582031 372.886719 M 251.4375 389.496094 C 258.925781 383.316406 256.878906 375.332031 245.289062 365.542969 C 248.558594 370.558594 250.605469 377.839844 251.4375 387.378906 L 251.402344 389.628906 Z M 251.4375 389.496094 " fill-opacity="1" fill-rule="nonzero"/><path fill="#e7e2da" d="M 336.535156 343.613281 C 336.4375 343.46875 336.351562 343.320312 336.273438 343.175781 L 373.804688 326.238281 C 377.808594 329.148438 379.21875 333.527344 378.03125 339.375 L 375.136719 339.640625 Z M 336.535156 343.613281 " fill-opacity="1" fill-rule="nonzero"/><path fill="#637480" d="M 335.023438 343.765625 L 331.824219 337.105469 L 370.578125 319.460938 C 373.113281 319.800781 374.191406 322.058594 373.804688 326.238281 L 336.273438 343.175781 Z M 335.023438 343.765625 " fill-opacity="1" fill-rule="nonzero"/><path fill="#ffe0b1" d="M 375.136719 339.640625 C 378.121094 348.054688 380.457031 356.601562 382.148438 365.28125 C 378.023438 371.3125 372.1875 376.058594 364.648438 379.523438 C 353.054688 369.269531 343.683594 357.300781 336.535156 343.613281 Z M 375.136719 339.640625 " fill-opacity="1" fill-rule="nonzero"/><path fill="#7e95a3" d="M 327.324219 313.976562 C 329.425781 308.828125 333.171875 305.066406 338.554688 302.6875 L 338.6875 302.652344 C 339.699219 302.210938 340.6875 301.859375 341.652344 301.601562 C 350.457031 298.988281 360.097656 304.941406 370.578125 319.460938 L 331.824219 337.105469 L 327.820312 329.003906 C 325.410156 324.214844 325.242188 319.207031 327.324219 313.976562 Z M 327.324219 313.976562 " fill-opacity="1" fill-rule="nonzero"/><path fill="#ffe0b1" d="M 344.640625 385.878906 C 345.472656 376.339844 347.523438 369.058594 350.789062 364.042969 L 378.007812 363.949219 C 380.257812 363.910156 381.421875 364.917969 381.5 366.96875 L 381.492188 368.523438 C 382.445312 391.042969 376.4375 402.347656 363.472656 402.429688 C 358.890625 402.53125 354.195312 402.046875 349.390625 400.980469 C 346.207031 400.328125 344.59375 398.878906 344.554688 396.628906 L 344.511719 395.9375 C 344.53125 393.203125 344.574219 390.554688 344.644531 387.996094 L 344.679688 388.128906 L 344.640625 385.878906 M 378.203125 373.636719 C 378.082031 372.824219 376.84375 372.074219 374.496094 371.386719 C 372.234375 370.671875 369.46875 370.191406 366.203125 369.9375 C 362.871094 369.792969 360.117188 369.875 357.9375 370.175781 C 355.609375 370.609375 354.492188 371.191406 354.59375 371.917969 C 354.628906 372.753906 355.777344 373.53125 358.039062 374.242188 C 360.324219 375.042969 363.144531 375.554688 366.5 375.785156 C 369.765625 376.039062 372.523438 375.960938 374.765625 375.546875 C 377.09375 375.113281 378.242188 374.476562 378.203125 373.636719 Z M 378.203125 373.636719 " fill-opacity="1" fill-rule="nonzero"/><path fill="#e7cba0" d="M 374.496094 371.386719 C 376.84375 372.074219 378.082031 372.824219 378.203125 373.636719 C 378.242188 374.476562 377.09375 375.113281 374.765625 375.546875 C 372.523438 375.960938 369.765625 376.039062 366.5 375.785156 C 363.144531 375.554688 360.324219 375.042969 358.039062 374.242188 C 355.777344 373.53125 354.628906 372.753906 354.59375 371.917969 C 354.492188 371.191406 355.609375 370.609375 357.9375 370.175781 C 360.117188 369.875 362.871094 369.792969 366.203125 369.9375 C 369.46875 370.191406 372.234375 370.671875 374.496094 371.386719 M 344.644531 387.996094 C 337.152344 381.816406 339.199219 373.832031 350.789062 364.042969 C 347.523438 369.058594 345.472656 376.339844 344.640625 385.878906 L 344.679688 388.128906 Z M 344.644531 387.996094 " fill-opacity="1" fill-rule="nonzero"/><path fill="#d7bd93" d="M 298.3125 323.882812 C 305.949219 323.882812 312.449219 322.113281 317.8125 318.566406 C 320.992188 316.476562 323.21875 314.113281 324.492188 311.476562 L 272.132812 311.476562 C 273.40625 314.113281 275.632812 316.476562 278.8125 318.566406 C 284.175781 322.113281 290.675781 323.882812 298.3125 323.882812 Z M 298.3125 323.882812 " fill-opacity="1" fill-rule="nonzero"/><path fill="#e7e2da" d="M 351.082031 299.066406 C 351.171875 298.613281 351.261719 298.203125 351.355469 297.839844 C 352.355469 290.929688 352.945312 283.976562 353.125 276.976562 C 351.035156 288.25 345.761719 292.429688 337.308594 289.519531 C 326.128906 284.703125 313.085938 282.292969 298.175781 282.292969 C 286.996094 282.292969 276.90625 283.65625 267.90625 286.382812 C 265.722656 287.019531 263.585938 287.75 261.496094 288.566406 C 252.042969 292.929688 244.363281 284.882812 238.453125 264.429688 C 238 275.976562 238.632812 287.566406 240.363281 299.203125 C 240.542969 300.203125 240.769531 301.113281 241.042969 301.929688 C 241.316406 303.203125 241.769531 304.339844 242.40625 305.339844 C 244.679688 309.429688 248.632812 311.476562 254.269531 311.476562 L 337.035156 311.476562 C 344.671875 311.476562 349.261719 307.839844 350.808594 300.566406 C 350.898438 300.019531 350.992188 299.519531 351.082031 299.066406 Z M 351.082031 299.066406 " fill-opacity="1" fill-rule="nonzero"/><path fill="#ffe0b1" d="M 240.363281 243.019531 C 239.363281 250.113281 238.726562 257.25 238.453125 264.429688 C 244.363281 284.882812 252.042969 292.929688 261.496094 288.566406 C 263.585938 287.75 265.722656 287.019531 267.90625 286.382812 C 276.90625 283.65625 286.996094 282.292969 298.175781 282.292969 C 313.085938 282.292969 326.128906 284.703125 337.308594 289.519531 C 345.761719 292.429688 351.035156 288.25 353.125 276.976562 C 353.21875 272.066406 353.171875 267.113281 352.992188 262.113281 C 352.625 255.75 351.945312 249.292969 350.945312 242.75 C 349.761719 234.65625 345.128906 230.613281 337.035156 230.613281 L 254.269531 230.613281 C 246.269531 230.613281 241.632812 234.75 240.363281 243.019531 Z M 240.363281 243.019531 " fill-opacity="1" fill-rule="nonzero"/><path fill="#544b4b" d="M 320.402344 251.066406 L 318.628906 259.792969 L 342.628906 259.792969 C 337.628906 253.519531 330.21875 250.613281 320.402344 251.066406 M 289.039062 262.792969 L 287.269531 254.066406 C 277.449219 253.613281 270.042969 256.519531 265.042969 262.792969 Z M 289.039062 262.792969 " fill-opacity="1" fill-rule="nonzero"/><path fill="#7f7058" d="M 275.40625 268.65625 C 275.222656 269.476562 275.132812 270.339844 275.132812 271.25 C 275.132812 273.613281 275.675781 275.613281 276.769531 277.25 C 277.042969 277.613281 277.3125 277.929688 277.585938 278.203125 C 278.585938 279.292969 279.722656 279.839844 280.996094 279.839844 C 282.269531 279.839844 283.40625 279.292969 284.402344 278.203125 C 284.675781 277.929688 284.902344 277.613281 285.085938 277.25 C 286.269531 275.613281 286.859375 273.613281 286.859375 271.25 C 286.859375 270.339844 286.769531 269.476562 286.585938 268.65625 L 275.40625 268.65625 M 332.808594 271.25 C 332.808594 270.339844 332.71875 269.476562 332.539062 268.65625 L 321.355469 268.65625 C 321.175781 269.476562 321.082031 270.339844 321.082031 271.25 C 321.082031 273.613281 321.628906 275.613281 322.71875 277.25 C 322.992188 277.613281 323.265625 277.929688 323.539062 278.203125 C 324.539062 279.292969 325.675781 279.839844 326.945312 279.839844 C 328.21875 279.839844 329.355469 279.292969 330.355469 278.203125 C 330.628906 277.929688 330.855469 277.613281 331.039062 277.25 C 332.21875 275.613281 332.808594 273.613281 332.808594 271.25 M 317.539062 286.929688 C 316.992188 286.566406 316.449219 286.382812 315.902344 286.382812 L 308.128906 286.382812 L 308.128906 294.566406 L 289.039062 294.566406 C 289.585938 295.476562 290.265625 296.292969 291.085938 297.019531 C 294.359375 300.292969 298.222656 301.929688 302.675781 301.929688 C 307.128906 301.929688 310.949219 300.339844 314.128906 297.15625 L 314.265625 297.019531 C 315.628906 295.65625 316.71875 294.15625 317.539062 292.519531 C 317.992188 291.703125 318.355469 290.839844 318.628906 289.929688 C 318.71875 289.292969 318.675781 288.75 318.492188 288.292969 C 318.3125 287.65625 317.992188 287.203125 317.539062 286.929688 Z M 317.539062 286.929688 " fill-opacity="1" fill-rule="nonzero"/><path fill="#ffffff" d="M 275.132812 271.25 C 275.132812 270.339844 275.222656 269.476562 275.40625 268.65625 L 269.269531 268.65625 C 269.085938 269.476562 268.996094 270.339844 268.996094 271.25 C 268.996094 273.976562 269.8125 276.292969 271.449219 278.203125 C 271.542969 278.292969 271.632812 278.382812 271.722656 278.476562 C 273.722656 280.566406 276.132812 281.613281 278.949219 281.613281 C 281.769531 281.613281 284.085938 280.566406 285.902344 278.476562 C 285.996094 278.382812 286.085938 278.292969 286.175781 278.203125 C 287.996094 276.292969 288.902344 273.976562 288.902344 271.25 C 288.902344 270.339844 288.8125 269.476562 288.632812 268.65625 L 286.585938 268.65625 C 286.769531 269.476562 286.859375 270.339844 286.859375 271.25 C 286.859375 273.613281 286.269531 275.613281 285.085938 277.25 C 284.902344 277.613281 284.675781 277.929688 284.402344 278.203125 C 283.40625 279.292969 282.269531 279.839844 280.996094 279.839844 C 279.722656 279.839844 278.585938 279.292969 277.585938 278.203125 C 277.3125 277.929688 277.042969 277.613281 276.769531 277.25 C 275.675781 275.613281 275.132812 273.613281 275.132812 271.25 M 332.539062 268.65625 C 332.71875 269.476562 332.808594 270.339844 332.808594 271.25 C 332.808594 273.613281 332.21875 275.613281 331.039062 277.25 C 330.855469 277.613281 330.628906 277.929688 330.355469 278.203125 C 329.355469 279.292969 328.21875 279.839844 326.945312 279.839844 C 325.675781 279.839844 324.539062 279.292969 323.539062 278.203125 C 323.265625 277.929688 322.992188 277.613281 322.71875 277.25 C 321.628906 275.613281 321.082031 273.613281 321.082031 271.25 C 321.082031 270.339844 321.175781 269.476562 321.355469 268.65625 L 319.992188 268.65625 C 319.8125 269.476562 319.71875 270.339844 319.71875 271.25 C 319.71875 273.976562 320.539062 276.292969 322.175781 278.203125 C 322.265625 278.292969 322.355469 278.382812 322.445312 278.476562 C 324.445312 280.566406 326.855469 281.613281 329.671875 281.613281 C 332.492188 281.613281 334.808594 280.566406 336.628906 278.476562 C 336.71875 278.382812 336.808594 278.292969 336.902344 278.203125 C 338.71875 276.292969 339.628906 273.976562 339.628906 271.25 C 339.628906 270.339844 339.535156 269.476562 339.355469 268.65625 L 332.539062 268.65625 M 308.128906 294.566406 L 308.128906 286.382812 L 289.449219 286.382812 C 288.902344 286.382812 288.402344 286.566406 287.949219 286.929688 C 287.402344 287.203125 287.039062 287.65625 286.859375 288.292969 C 286.675781 288.75 286.675781 289.292969 286.859375 289.929688 C 287.039062 290.839844 287.359375 291.703125 287.8125 292.519531 C 288.175781 293.25 288.585938 293.929688 289.039062 294.566406 Z M 308.128906 294.566406 " fill-opacity="1" fill-rule="nonzero"/><path fill="#544b4b" d="M 304.449219 239.339844 C 317.554688 242.222656 331.601562 242.40625 346.582031 239.882812 L 335.402344 188.75 C 335.785156 184.917969 336.785156 182.097656 338.402344 180.292969 C 299.296875 190.164062 271.710938 209.34375 255.632812 237.839844 C 265.328125 232.84375 275.417969 231.523438 285.902344 233.882812 C 291.394531 235.472656 296.03125 238.699219 299.8125 243.566406 Z M 304.449219 239.339844 " fill-opacity="1" fill-rule="nonzero"/><path fill="#5d5454" d="M 335.402344 188.75 L 346.582031 239.882812 L 353.125 262.113281 L 356.125 216.429688 L 335.402344 188.75 M 338.402344 180.292969 C 339.5 179.128906 340.863281 178.402344 342.492188 178.113281 C 326.855469 175.839844 308.722656 178.613281 288.085938 186.429688 C 287.632812 186.519531 287.175781 186.65625 286.722656 186.839844 C 276.359375 189.929688 264.496094 194.566406 251.132812 200.75 L 247.726562 209.203125 L 239.269531 205.519531 L 231.089844 223.929688 C 226 237.566406 228.726562 255.75 239.269531 278.476562 L 255.632812 237.839844 C 271.710938 209.34375 299.296875 190.164062 338.402344 180.292969 Z M 338.402344 180.292969 " fill-opacity="1" fill-rule="nonzero"/></svg>