<svg xmlns="http://www.w3.org/2000/svg" xmlns:xlink="http://www.w3.org/1999/xlink" width="800" zoomAndPan="magnify" viewBox="0 0 600 599.999999" height="800" preserveAspectRatio="xMidYMid meet" version="1.0"><defs><clipPath id="55499f9ce2"><path d="M 0.546875 0.90625 L 265.304688 0.90625 L 265.304688 265.664062 L 0.546875 265.664062 Z M 0.546875 0.90625 " clip-rule="nonzero"/></clipPath><clipPath id="86a96046e6"><path d="M 0.546875 0.90625 L 265.304688 0.90625 L 265.304688 265.664062 L 0.546875 265.664062 Z M 0.546875 0.90625 " clip-rule="nonzero"/></clipPath><clipPath id="10ff41c206"><rect x="0" width="266" y="0" height="266"/></clipPath><clipPath id="2afdfaa672"><path d="M 31.742188 0.90625 L 84.398438 0.90625 L 84.398438 41.75 L 31.742188 41.75 Z M 31.742188 0.90625 " clip-rule="nonzero"/></clipPath><clipPath id="0879de4717"><path d="M 58.042969 41.75 L 84.34375 0.90625 L 31.742188 0.90625 Z M 58.042969 41.75 " clip-rule="nonzero"/></clipPath><clipPath id="07944cf86e"><path d="M 0.742188 0.90625 L 53.398438 0.90625 L 53.398438 41.75 L 0.742188 41.75 Z M 0.742188 0.90625 " clip-rule="nonzero"/></clipPath><clipPath id="6547448f56"><path d="M 27.042969 41.75 L 53.34375 0.90625 L 0.742188 0.90625 Z M 27.042969 41.75 " clip-rule="nonzero"/></clipPath><clipPath id="296b40acd7"><rect x="0" width="54" y="0" height="42"/></clipPath><clipPath id="57be8aab24"><path d="M 16.40625 63.550781 L 250.324219 63.550781 L 250.324219 243.550781 L 16.40625 243.550781 Z M 16.40625 63.550781 " clip-rule="nonzero"/></clipPath><clipPath id="8fe48df4c2"><path d="M 0.40625 0.550781 L 234.324219 0.550781 L 234.324219 180.550781 L 0.40625 180.550781 Z M 0.40625 0.550781 " clip-rule="nonzero"/></clipPath><clipPath id="cea2b83131"><rect x="0" width="235" y="0" height="181"/></clipPath><clipPath id="bd24be45ee"><path d="M 110.464844 0.90625 L 159.128906 0.90625 L 159.128906 41.75 L 110.464844 41.75 Z M 110.464844 0.90625 " clip-rule="nonzero"/></clipPath><clipPath id="12f164cec2"><path d="M 134.75 41.75 L 159.035156 0.90625 L 110.464844 0.90625 Z M 134.75 41.75 " clip-rule="nonzero"/></clipPath><clipPath id="0471af8228"><path d="M 0.464844 0.90625 L 49 0.90625 L 49 41.75 L 0.464844 41.75 Z M 0.464844 0.90625 " clip-rule="nonzero"/></clipPath><clipPath id="ecd79bad30"><path d="M 24.75 41.75 L 49.035156 0.90625 L 0.464844 0.90625 Z M 24.75 41.75 " clip-rule="nonzero"/></clipPath><clipPath id="2b63f9a0ec"><rect x="0" width="50" y="0" height="42"/></clipPath><clipPath id="02e97ed991"><path d="M 185.285156 0.90625 L 232.351562 0.90625 L 232.351562 41.75 L 185.285156 41.75 Z M 185.285156 0.90625 " clip-rule="nonzero"/></clipPath><clipPath id="334af51321"><path d="M 208.796875 41.75 L 232.3125 0.90625 L 185.285156 0.90625 Z M 208.796875 41.75 " clip-rule="nonzero"/></clipPath><clipPath id="421640cb37"><path d="M 0.285156 0.90625 L 47.351562 0.90625 L 47.351562 41.75 L 0.285156 41.75 Z M 0.285156 0.90625 " clip-rule="nonzero"/></clipPath><clipPath id="f93b79f7f5"><path d="M 23.796875 41.75 L 47.3125 0.90625 L 0.285156 0.90625 Z M 23.796875 41.75 " clip-rule="nonzero"/></clipPath><clipPath id="5fb07b4371"><rect x="0" width="48" y="0" height="42"/></clipPath><clipPath id="a8385a3b18"><path d="M 16.40625 51.851562 L 250.324219 51.851562 L 250.324219 75.710938 L 16.40625 75.710938 Z M 16.40625 51.851562 " clip-rule="nonzero"/></clipPath><clipPath id="6121f6dcef"><path d="M 0.40625 0.851562 L 234.324219 0.851562 L 234.324219 24.710938 L 0.40625 24.710938 Z M 0.40625 0.851562 " clip-rule="nonzero"/></clipPath><clipPath id="41c0dc22c2"><rect x="0" width="235" y="0" height="25"/></clipPath><clipPath id="52b20a4b20"><path d="M 204.21875 96.066406 L 219.109375 96.066406 L 219.109375 109.90625 L 204.21875 109.90625 Z M 204.21875 96.066406 " clip-rule="nonzero"/></clipPath><clipPath id="09671b9240"><path d="M 0.21875 0.0664062 L 15.109375 0.0664062 L 15.109375 13.90625 L 0.21875 13.90625 Z M 0.21875 0.0664062 " clip-rule="nonzero"/></clipPath><clipPath id="85bceb1e14"><rect x="0" width="16" y="0" height="14"/></clipPath><clipPath id="0765d4cbcb"><path d="M 103.039062 109.90625 L 142.597656 109.90625 L 142.597656 144.011719 L 103.039062 144.011719 Z M 103.039062 109.90625 " clip-rule="nonzero"/></clipPath><clipPath id="363601ac1e"><path d="M 0.0390625 0.90625 L 39.597656 0.90625 L 39.597656 35.011719 L 0.0390625 35.011719 Z M 0.0390625 0.90625 " clip-rule="nonzero"/></clipPath><clipPath id="1a227a62de"><rect x="0" width="40" y="0" height="36"/></clipPath><clipPath id="8cc5b2e798"><path d="M 50.371094 116.996094 L 65.261719 116.996094 L 65.261719 130.839844 L 50.371094 130.839844 Z M 50.371094 116.996094 " clip-rule="nonzero"/></clipPath><clipPath id="959afd72be"><path d="M 0.371094 0.996094 L 15.261719 0.996094 L 15.261719 14.839844 L 0.371094 14.839844 Z M 0.371094 0.996094 " clip-rule="nonzero"/></clipPath><clipPath id="e0146e2eac"><rect x="0" width="16" y="0" height="15"/></clipPath><clipPath id="01a6fc98ad"><path d="M 25.59375 172.089844 L 61.628906 172.089844 L 61.628906 215.886719 L 25.59375 215.886719 Z M 25.59375 172.089844 " clip-rule="nonzero"/></clipPath><clipPath id="2b440ec3c3"><path d="M 0.59375 0.0898438 L 36.628906 0.0898438 L 36.628906 43.886719 L 0.59375 43.886719 Z M 0.59375 0.0898438 " clip-rule="nonzero"/></clipPath><clipPath id="2edcb82b56"><rect x="0" width="37" y="0" height="44"/></clipPath><clipPath id="11bf8479ae"><path d="M 77.492188 199.8125 L 105.535156 199.8125 L 105.535156 231.960938 L 77.492188 231.960938 Z M 77.492188 199.8125 " clip-rule="nonzero"/></clipPath><clipPath id="43d6a39b08"><path d="M 0.492188 0.8125 L 28.535156 0.8125 L 28.535156 32.960938 L 0.492188 32.960938 Z M 0.492188 0.8125 " clip-rule="nonzero"/></clipPath><clipPath id="8ff48f333f"><rect x="0" width="29" y="0" height="33"/></clipPath><clipPath id="50ee372623"><path d="M 142.546875 32.472656 L 195.0625 32.472656 L 195.0625 66.421875 L 142.546875 66.421875 Z M 142.546875 32.472656 " clip-rule="nonzero"/></clipPath><clipPath id="889ef1a6e6"><path d="M 177.578125 32.472656 L 160.082031 32.472656 L 142.597656 66.421875 L 195.0625 66.421875 Z M 177.578125 32.472656 " clip-rule="nonzero"/></clipPath><clipPath id="80d66d7e7e"><path d="M 0.546875 0.472656 L 53.0625 0.472656 L 53.0625 34.421875 L 0.546875 34.421875 Z M 0.546875 0.472656 " clip-rule="nonzero"/></clipPath><clipPath id="4ec82c4e87"><path d="M 35.578125 0.472656 L 18.082031 0.472656 L 0.597656 34.421875 L 53.0625 34.421875 Z M 35.578125 0.472656 " clip-rule="nonzero"/></clipPath><clipPath id="bbb79a1e33"><rect x="0" width="54" y="0" height="35"/></clipPath><clipPath id="f953aa810e"><path d="M 70.300781 32.472656 L 122.816406 32.472656 L 122.816406 66.421875 L 70.300781 66.421875 Z M 70.300781 32.472656 " clip-rule="nonzero"/></clipPath><clipPath id="bdbf86b14f"><path d="M 105.332031 32.472656 L 87.835938 32.472656 L 70.351562 66.421875 L 122.816406 66.421875 Z M 105.332031 32.472656 " clip-rule="nonzero"/></clipPath><clipPath id="e27a1ab3de"><path d="M 0.300781 0.472656 L 52.816406 0.472656 L 52.816406 34.421875 L 0.300781 34.421875 Z M 0.300781 0.472656 " clip-rule="nonzero"/></clipPath><clipPath id="b1c54766b7"><path d="M 35.332031 0.472656 L 17.835938 0.472656 L 0.351562 34.421875 L 52.816406 34.421875 Z M 35.332031 0.472656 " clip-rule="nonzero"/></clipPath><clipPath id="ca5674530b"><rect x="0" width="53" y="0" height="35"/></clipPath><clipPath id="77325d7fdd"><path d="M 76.804688 51.851562 L 116.367188 51.851562 L 116.367188 85.960938 L 76.804688 85.960938 Z M 76.804688 51.851562 " clip-rule="nonzero"/></clipPath><clipPath id="57fedf0787"><path d="M 0.804688 0.851562 L 40.367188 0.851562 L 40.367188 34.960938 L 0.804688 34.960938 Z M 0.804688 0.851562 " clip-rule="nonzero"/></clipPath><clipPath id="25f3ebfc02"><rect x="0" width="41" y="0" height="35"/></clipPath><clipPath id="c08aebe923"><path d="M 149.050781 51.851562 L 188.613281 51.851562 L 188.613281 85.960938 L 149.050781 85.960938 Z M 149.050781 51.851562 " clip-rule="nonzero"/></clipPath><clipPath id="9b58a1d9cc"><path d="M 0.0507812 0.851562 L 39.613281 0.851562 L 39.613281 34.960938 L 0.0507812 34.960938 Z M 0.0507812 0.851562 " clip-rule="nonzero"/></clipPath><clipPath id="ed62efac30"><rect x="0" width="40" y="0" height="35"/></clipPath><clipPath id="b5cac49b64"><path d="M 16.40625 66.425781 L 37.351562 66.425781 L 37.351562 85.933594 L 16.40625 85.933594 Z M 16.40625 66.425781 " clip-rule="nonzero"/></clipPath><clipPath id="256861d07d"><path d="M 0.40625 0.425781 L 21.351562 0.425781 L 21.351562 19.933594 L 0.40625 19.933594 Z M 0.40625 0.425781 " clip-rule="nonzero"/></clipPath><clipPath id="aa61d41f56"><rect x="0" width="22" y="0" height="20"/></clipPath><clipPath id="fa83e9b8b6"><path d="M 228.363281 68.878906 L 250.324219 68.878906 L 250.324219 85.960938 L 228.363281 85.960938 Z M 228.363281 68.878906 " clip-rule="nonzero"/></clipPath><clipPath id="9ea43b85bf"><path d="M 0.363281 0.878906 L 22.324219 0.878906 L 22.324219 17.960938 L 0.363281 17.960938 Z M 0.363281 0.878906 " clip-rule="nonzero"/></clipPath><clipPath id="b841401408"><rect x="0" width="23" y="0" height="18"/></clipPath><clipPath id="2a55b3aab0"><path d="M 26.15625 33.191406 L 48.164062 33.191406 L 48.164062 65.777344 L 26.15625 65.777344 Z M 26.15625 33.191406 " clip-rule="nonzero"/></clipPath><clipPath id="c30f9fa24c"><path d="M 48.164062 65.707031 L 26.15625 65.707031 L 26.15625 33.191406 Z M 48.164062 65.707031 " clip-rule="nonzero"/></clipPath><clipPath id="665de7d23d"><path d="M 0.15625 0.191406 L 22.164062 0.191406 L 22.164062 32.777344 L 0.15625 32.777344 Z M 0.15625 0.191406 " clip-rule="nonzero"/></clipPath><clipPath id="fb7be12b12"><path d="M 22.164062 32.707031 L 0.15625 32.707031 L 0.15625 0.191406 Z M 22.164062 32.707031 " clip-rule="nonzero"/></clipPath><clipPath id="3298e7b13b"><rect x="0" width="23" y="0" height="33"/></clipPath><clipPath id="79b54896b7"><path d="M 16.40625 33.191406 L 26.175781 33.191406 L 26.175781 65.707031 L 16.40625 65.707031 Z M 16.40625 33.191406 " clip-rule="nonzero"/></clipPath><clipPath id="3b1225d2b3"><path d="M 0.40625 0.191406 L 10.175781 0.191406 L 10.175781 32.707031 L 0.40625 32.707031 Z M 0.40625 0.191406 " clip-rule="nonzero"/></clipPath><clipPath id="d890270f07"><rect x="0" width="11" y="0" height="33"/></clipPath><clipPath id="2ed0c6668f"><path d="M 226.070312 29.648438 L 242.3125 29.648438 L 242.3125 51.851562 L 226.070312 51.851562 Z M 226.070312 29.648438 " clip-rule="nonzero"/></clipPath><clipPath id="625ce6d128"><path d="M 242.3125 29.707031 L 242.3125 51.851562 L 226.070312 51.851562 Z M 242.3125 29.707031 " clip-rule="nonzero"/></clipPath><clipPath id="c694af8f22"><path d="M 0.0703125 0.648438 L 16.3125 0.648438 L 16.3125 22.851562 L 0.0703125 22.851562 Z M 0.0703125 0.648438 " clip-rule="nonzero"/></clipPath><clipPath id="af80a23143"><path d="M 16.3125 0.707031 L 16.3125 22.851562 L 0.0703125 22.851562 Z M 16.3125 0.707031 " clip-rule="nonzero"/></clipPath><clipPath id="b45ed54c0d"><rect x="0" width="17" y="0" height="23"/></clipPath><clipPath id="5e33ea07f8"><path d="M 242.3125 29.851562 L 250.324219 29.851562 L 250.324219 51.851562 L 242.3125 51.851562 Z M 242.3125 29.851562 " clip-rule="nonzero"/></clipPath><clipPath id="88ebf2247f"><path d="M 0.3125 0.851562 L 8.324219 0.851562 L 8.324219 22.851562 L 0.3125 22.851562 Z M 0.3125 0.851562 " clip-rule="nonzero"/></clipPath><clipPath id="5e55602301"><rect x="0" width="9" y="0" height="23"/></clipPath><clipPath id="62bf581628"><path d="M 44.046875 29.707031 L 73.519531 29.707031 L 73.519531 44.433594 L 44.046875 44.433594 Z M 44.046875 29.707031 " clip-rule="nonzero"/></clipPath><clipPath id="09b7addb02"><path d="M 0.046875 0.707031 L 29.519531 0.707031 L 29.519531 15.433594 L 0.046875 15.433594 Z M 0.046875 0.707031 " clip-rule="nonzero"/></clipPath><clipPath id="e29070c91d"><rect x="0" width="30" y="0" height="16"/></clipPath><clipPath id="29cfb1d02b"><path d="M 120.011719 29.707031 L 149.488281 29.707031 L 149.488281 44.433594 L 120.011719 44.433594 Z M 120.011719 29.707031 " clip-rule="nonzero"/></clipPath><clipPath id="4c497c6b53"><path d="M 0.0117188 0.707031 L 29.488281 0.707031 L 29.488281 15.433594 L 0.0117188 15.433594 Z M 0.0117188 0.707031 " clip-rule="nonzero"/></clipPath><clipPath id="06c2832f68"><rect x="0" width="30" y="0" height="16"/></clipPath><clipPath id="19fd57c61c"><path d="M 195.066406 29.707031 L 224.539062 29.707031 L 224.539062 44.433594 L 195.066406 44.433594 Z M 195.066406 29.707031 " clip-rule="nonzero"/></clipPath><clipPath id="a94290ca33"><path d="M 0.0664062 0.707031 L 29.539062 0.707031 L 29.539062 15.433594 L 0.0664062 15.433594 Z M 0.0664062 0.707031 " clip-rule="nonzero"/></clipPath><clipPath id="a3cb7e0e22"><rect x="0" width="30" y="0" height="16"/></clipPath><clipPath id="46f63e801e"><rect x="0" width="266" y="0" height="266"/></clipPath></defs><g transform="matrix(1, 0, 0, 1, 172, 189)"><g clip-path="url(#46f63e801e)"><g clip-path="url(#55499f9ce2)"><g transform="matrix(1, 0, 0, 1, 0, -0.000000000000028422)"><g clip-path="url(#10ff41c206)"><g clip-path="url(#86a96046e6)"><path fill="#444a5e" d="M 0.546875 0.90625 L 265.304688 0.90625 L 265.304688 265.664062 L 0.546875 265.664062 Z M 0.546875 0.90625 " fill-opacity="1" fill-rule="nonzero"/></g></g></g></g><g clip-path="url(#2afdfaa672)"><g clip-path="url(#0879de4717)"><g transform="matrix(1, 0, 0, 1, 31, -0.000000000000028422)"><g clip-path="url(#296b40acd7)"><g clip-path="url(#07944cf86e)"><g clip-path="url(#6547448f56)"><path fill="#ffffff" d="M 0.742188 0.90625 L 53.398438 0.90625 L 53.398438 41.75 L 0.742188 41.75 Z M 0.742188 0.90625 " fill-opacity="1" fill-rule="nonzero"/></g></g></g></g></g></g><g clip-path="url(#57be8aab24)"><g transform="matrix(1, 0, 0, 1, 16, 63)"><g clip-path="url(#cea2b83131)"><g clip-path="url(#8fe48df4c2)"><path fill="#32be7f" d="M 0.40625 0.550781 L 234.546875 0.550781 L 234.546875 180.550781 L 0.40625 180.550781 Z M 0.40625 0.550781 " fill-opacity="1" fill-rule="nonzero"/></g></g></g></g><g clip-path="url(#bd24be45ee)"><g clip-path="url(#12f164cec2)"><g transform="matrix(1, 0, 0, 1, 110, -0.000000000000028422)"><g clip-path="url(#2b63f9a0ec)"><g clip-path="url(#0471af8228)"><g clip-path="url(#ecd79bad30)"><path fill="#ffffff" d="M 0.464844 0.90625 L 48.96875 0.90625 L 48.96875 41.75 L 0.464844 41.75 Z M 0.464844 0.90625 " fill-opacity="1" fill-rule="nonzero"/></g></g></g></g></g></g><g clip-path="url(#02e97ed991)"><g clip-path="url(#334af51321)"><g transform="matrix(1, 0, 0, 1, 185, -0.000000000000028422)"><g clip-path="url(#5fb07b4371)"><g clip-path="url(#421640cb37)"><g clip-path="url(#f93b79f7f5)"><path fill="#ffffff" d="M 0.285156 0.90625 L 47.351562 0.90625 L 47.351562 41.75 L 0.285156 41.75 Z M 0.285156 0.90625 " fill-opacity="1" fill-rule="nonzero"/></g></g></g></g></g></g><g clip-path="url(#a8385a3b18)"><g transform="matrix(1, 0, 0, 1, 16, 51)"><g clip-path="url(#41c0dc22c2)"><g clip-path="url(#6121f6dcef)"><path fill="#01e866" d="M 0.40625 0.851562 L 234.324219 0.851562 L 234.324219 24.710938 L 0.40625 24.710938 Z M 0.40625 0.851562 " fill-opacity="1" fill-rule="nonzero"/></g></g></g></g><g clip-path="url(#52b20a4b20)"><g transform="matrix(1, 0, 0, 1, 204, 96)"><g clip-path="url(#85bceb1e14)"><g clip-path="url(#09671b9240)"><path fill="#01e866" d="M 0.21875 0.0664062 L 15.089844 0.0664062 L 15.089844 13.90625 L 0.21875 13.90625 Z M 0.21875 0.0664062 " fill-opacity="1" fill-rule="nonzero"/></g></g></g></g><g clip-path="url(#0765d4cbcb)"><g transform="matrix(1, 0, 0, 1, 103, 109)"><g clip-path="url(#1a227a62de)"><g clip-path="url(#363601ac1e)"><path fill="#01e866" d="M 0.0390625 0.90625 L 39.609375 0.90625 L 39.609375 35.011719 L 0.0390625 35.011719 Z M 0.0390625 0.90625 " fill-opacity="1" fill-rule="nonzero"/></g></g></g></g><g clip-path="url(#8cc5b2e798)"><g transform="matrix(1, 0, 0, 1, 50, 116)"><g clip-path="url(#e0146e2eac)"><g clip-path="url(#959afd72be)"><path fill="#01e866" d="M 0.371094 0.996094 L 15.242188 0.996094 L 15.242188 14.839844 L 0.371094 14.839844 Z M 0.371094 0.996094 " fill-opacity="1" fill-rule="nonzero"/></g></g></g></g><g clip-path="url(#01a6fc98ad)"><g transform="matrix(1, 0, 0, 1, 25, 172)"><g clip-path="url(#2edcb82b56)"><g clip-path="url(#2b440ec3c3)"><path fill="#01e866" d="M 0.59375 0.0898438 L 36.628906 0.0898438 L 36.628906 43.867188 L 0.59375 43.867188 Z M 0.59375 0.0898438 " fill-opacity="1" fill-rule="nonzero"/></g></g></g></g><g clip-path="url(#11bf8479ae)"><g transform="matrix(1, 0, 0, 1, 77, 199)"><g clip-path="url(#8ff48f333f)"><g clip-path="url(#43d6a39b08)"><path fill="#01e866" d="M 0.492188 0.8125 L 28.535156 0.8125 L 28.535156 32.910156 L 0.492188 32.910156 Z M 0.492188 0.8125 " fill-opacity="1" fill-rule="nonzero"/></g></g></g></g><g clip-path="url(#50ee372623)"><g clip-path="url(#889ef1a6e6)"><g transform="matrix(1, 0, 0, 1, 142, 32)"><g clip-path="url(#bbb79a1e33)"><g clip-path="url(#80d66d7e7e)"><g clip-path="url(#4ec82c4e87)"><path fill="#01e866" d="M 53.0625 34.421875 L 0.546875 34.421875 L 0.546875 0.472656 L 53.0625 0.472656 Z M 53.0625 34.421875 " fill-opacity="1" fill-rule="nonzero"/></g></g></g></g></g></g><g clip-path="url(#f953aa810e)"><g clip-path="url(#bdbf86b14f)"><g transform="matrix(1, 0, 0, 1, 70, 32)"><g clip-path="url(#ca5674530b)"><g clip-path="url(#e27a1ab3de)"><g clip-path="url(#b1c54766b7)"><path fill="#01e866" d="M 52.816406 34.421875 L 0.300781 34.421875 L 0.300781 0.472656 L 52.816406 0.472656 Z M 52.816406 34.421875 " fill-opacity="1" fill-rule="nonzero"/></g></g></g></g></g></g><g clip-path="url(#77325d7fdd)"><g transform="matrix(1, 0, 0, 1, 76, 51)"><g clip-path="url(#25f3ebfc02)"><g clip-path="url(#57fedf0787)"><path fill="#01e866" d="M 0.804688 0.851562 L 40.375 0.851562 L 40.375 34.960938 L 0.804688 34.960938 Z M 0.804688 0.851562 " fill-opacity="1" fill-rule="nonzero"/></g></g></g></g><g clip-path="url(#c08aebe923)"><g transform="matrix(1, 0, 0, 1, 149, 51)"><g clip-path="url(#ed62efac30)"><g clip-path="url(#9b58a1d9cc)"><path fill="#01e866" d="M 0.0507812 0.851562 L 39.621094 0.851562 L 39.621094 34.960938 L 0.0507812 34.960938 Z M 0.0507812 0.851562 " fill-opacity="1" fill-rule="nonzero"/></g></g></g></g><g clip-path="url(#b5cac49b64)"><g transform="matrix(1, 0, 0, 1, 16, 66)"><g clip-path="url(#aa61d41f56)"><g clip-path="url(#256861d07d)"><path fill="#01e866" d="M 0.40625 0.425781 L 21.359375 0.425781 L 21.359375 19.933594 L 0.40625 19.933594 Z M 0.40625 0.425781 " fill-opacity="1" fill-rule="nonzero"/></g></g></g></g><g clip-path="url(#fa83e9b8b6)"><g transform="matrix(1, 0, 0, 1, 228, 68)"><g clip-path="url(#b841401408)"><g clip-path="url(#9ea43b85bf)"><path fill="#01e866" d="M 0.363281 0.878906 L 22.3125 0.878906 L 22.3125 17.960938 L 0.363281 17.960938 Z M 0.363281 0.878906 " fill-opacity="1" fill-rule="nonzero"/></g></g></g></g><g clip-path="url(#2a55b3aab0)"><g clip-path="url(#c30f9fa24c)"><g transform="matrix(1, 0, 0, 1, 26, 33)"><g clip-path="url(#3298e7b13b)"><g clip-path="url(#665de7d23d)"><g clip-path="url(#fb7be12b12)"><path fill="#01e866" d="M 0.15625 0.191406 L 22.164062 0.191406 L 22.164062 32.691406 L 0.15625 32.691406 Z M 0.15625 0.191406 " fill-opacity="1" fill-rule="nonzero"/></g></g></g></g></g></g><g clip-path="url(#79b54896b7)"><g transform="matrix(1, 0, 0, 1, 16, 33)"><g clip-path="url(#d890270f07)"><g clip-path="url(#3b1225d2b3)"><path fill="#01e866" d="M 0.40625 0.191406 L 10.175781 0.191406 L 10.175781 32.703125 L 0.40625 32.703125 Z M 0.40625 0.191406 " fill-opacity="1" fill-rule="nonzero"/></g></g></g></g><g clip-path="url(#2ed0c6668f)"><g clip-path="url(#625ce6d128)"><g transform="matrix(1, 0, 0, 1, 226, 29)"><g clip-path="url(#b45ed54c0d)"><g clip-path="url(#c694af8f22)"><g clip-path="url(#af80a23143)"><path fill="#01e866" d="M 0.0703125 22.851562 L 0.0703125 0.710938 L 16.3125 0.710938 L 16.3125 22.851562 Z M 0.0703125 22.851562 " fill-opacity="1" fill-rule="nonzero"/></g></g></g></g></g></g><g clip-path="url(#5e33ea07f8)"><g transform="matrix(1, 0, 0, 1, 242, 29)"><g clip-path="url(#5e55602301)"><g clip-path="url(#88ebf2247f)"><path fill="#01e866" d="M 0.3125 0.851562 L 8.324219 0.851562 L 8.324219 22.863281 L 0.3125 22.863281 Z M 0.3125 0.851562 " fill-opacity="1" fill-rule="nonzero"/></g></g></g></g><g clip-path="url(#62bf581628)"><g transform="matrix(1, 0, 0, 1, 44, 29)"><g clip-path="url(#e29070c91d)"><g clip-path="url(#09b7addb02)"><path fill="#444a5e" d="M 0.046875 0.707031 L 29.5 0.707031 L 29.5 15.433594 L 0.046875 15.433594 Z M 0.046875 0.707031 " fill-opacity="1" fill-rule="nonzero"/></g></g></g></g><g clip-path="url(#29cfb1d02b)"><g transform="matrix(1, 0, 0, 1, 120, 29)"><g clip-path="url(#06c2832f68)"><g clip-path="url(#4c497c6b53)"><path fill="#444a5e" d="M 0.0117188 0.707031 L 29.46875 0.707031 L 29.46875 15.433594 L 0.0117188 15.433594 Z M 0.0117188 0.707031 " fill-opacity="1" fill-rule="nonzero"/></g></g></g></g><g clip-path="url(#19fd57c61c)"><g transform="matrix(1, 0, 0, 1, 195, 29)"><g clip-path="url(#a3cb7e0e22)"><g clip-path="url(#a94290ca33)"><path fill="#444a5e" d="M 0.0664062 0.707031 L 29.519531 0.707031 L 29.519531 15.433594 L 0.0664062 15.433594 Z M 0.0664062 0.707031 " fill-opacity="1" fill-rule="nonzero"/></g></g></g></g></g></g></svg>