<svg xmlns="http://www.w3.org/2000/svg" xmlns:xlink="http://www.w3.org/1999/xlink" width="800" zoomAndPan="magnify" viewBox="0 0 600 599.999999" height="800" preserveAspectRatio="xMidYMid meet" version="1.0"><path fill="#e0c1a2" d="M 300.449219 457.539062 L 300.449219 445.585938 L 238.066406 445.585938 L 238.066406 457.539062 Z M 300.449219 457.539062 " fill-opacity="1" fill-rule="nonzero"/><path fill="#aa7e5c" d="M 300.273438 474.941406 L 300.273438 457.539062 L 238.066406 457.539062 L 238.066406 457.363281 C 233.847656 459.472656 230.039062 462.8125 226.644531 467.382812 L 226.644531 474.941406 Z M 300.273438 474.941406 " fill-opacity="1" fill-rule="nonzero"/><path fill="#eccfb1" d="M 269.34375 394.078125 L 269.167969 394.078125 C 260.5 394.078125 253.175781 397.007812 247.203125 402.867188 C 241.109375 408.84375 238.066406 416.109375 238.066406 424.664062 L 238.066406 445.585938 L 300.449219 445.585938 L 300.449219 424.664062 C 300.449219 416.109375 297.460938 408.84375 291.488281 402.867188 C 285.394531 397.007812 278.015625 394.078125 269.34375 394.078125 Z M 269.34375 394.078125 " fill-opacity="1" fill-rule="nonzero"/><path fill="#e0c1a2" d="M 311.519531 457.539062 L 311.519531 445.585938 L 373.902344 445.585938 L 373.902344 457.539062 Z M 311.519531 457.539062 " fill-opacity="1" fill-rule="nonzero"/><path fill="#aa7e5c" d="M 311.695312 474.941406 L 311.695312 457.539062 L 373.902344 457.539062 L 373.902344 457.363281 C 378.121094 459.472656 381.929688 462.8125 385.324219 467.382812 L 385.324219 474.941406 Z M 311.695312 474.941406 " fill-opacity="1" fill-rule="nonzero"/><path fill="#eccfb1" d="M 342.625 394.078125 L 342.800781 394.078125 C 351.46875 394.078125 358.789062 397.007812 364.765625 402.867188 C 370.859375 408.84375 373.902344 416.109375 373.902344 424.664062 L 373.902344 445.585938 L 311.519531 445.585938 L 311.519531 424.664062 C 311.519531 416.109375 314.507812 408.84375 320.480469 402.867188 C 326.574219 397.007812 333.953125 394.078125 342.625 394.078125 Z M 342.625 394.078125 " fill-opacity="1" fill-rule="nonzero"/><path fill="#fafafa" d="M 310.464844 383.703125 L 326.808594 337.296875 L 294.648438 338.703125 Z M 310.464844 383.703125 " fill-opacity="1" fill-rule="nonzero"/><path fill="#8e643a" d="M 334.890625 314.265625 L 326.808594 337.296875 L 310.464844 383.703125 L 335.769531 355.050781 L 343.855469 345.734375 L 352.464844 336.0625 L 334.890625 314.265625 M 294.648438 338.703125 L 286.039062 314.265625 L 268.464844 336.0625 L 310.464844 383.703125 L 294.648438 338.703125 M 239.296875 408.84375 L 239.296875 423.257812 L 376.363281 423.257812 L 376.363281 408.84375 Z M 239.296875 408.84375 " fill-opacity="1" fill-rule="nonzero"/><path fill="#25a65b" d="M 326.808594 337.296875 L 334.890625 314.265625 L 286.039062 314.265625 L 294.648438 338.703125 Z M 326.808594 337.296875 " fill-opacity="1" fill-rule="nonzero"/><path fill="#c48a51" d="M 335.769531 355.050781 L 310.464844 383.703125 L 268.464844 336.0625 L 286.039062 314.265625 L 239.296875 314.265625 L 239.296875 408.84375 L 376.363281 408.84375 L 376.363281 314.265625 L 334.890625 314.265625 L 352.464844 336.0625 L 343.855469 345.734375 L 363.007812 345.734375 L 363.007812 355.050781 Z M 335.769531 355.050781 " fill-opacity="1" fill-rule="nonzero"/><path fill="#b17d49" d="M 363.007812 345.734375 L 343.855469 345.734375 L 335.769531 355.050781 L 363.007812 355.050781 Z M 363.007812 345.734375 " fill-opacity="1" fill-rule="nonzero"/><path fill="#e05848" d="M 346.417969 381.273438 C 345.726562 382.644531 345.078125 384.117188 344.472656 385.691406 C 343.175781 385.875 341.921875 386.300781 340.710938 386.964844 C 339.550781 387.667969 338.570312 388.503906 337.761719 389.46875 C 336.132812 389.273438 334.5625 389.148438 333.050781 389.09375 C 329.214844 388.910156 327.148438 389.371094 326.855469 390.472656 C 326.539062 391.65625 328.085938 393.125 331.5 394.886719 C 332.847656 395.566406 334.320312 396.214844 335.917969 396.832031 C 336.058594 398.054688 336.464844 399.21875 337.136719 400.324219 C 337.839844 401.542969 338.671875 402.527344 339.636719 403.277344 C 339.441406 404.988281 339.316406 406.5625 339.261719 407.988281 C 339.035156 411.984375 339.515625 414.140625 340.695312 414.457031 C 341.800781 414.75 343.25 413.113281 345.050781 409.542969 C 345.761719 408.257812 346.449219 406.796875 347.113281 405.152344 C 348.265625 404.984375 349.390625 404.570312 350.488281 403.902344 C 351.648438 403.300781 352.621094 402.503906 353.40625 401.519531 C 355.128906 401.8125 356.730469 401.988281 358.207031 402.042969 C 362.199219 402.269531 364.351562 401.792969 364.667969 400.609375 C 364.964844 399.503906 363.328125 398.054688 359.757812 396.25 C 358.460938 395.53125 357 394.84375 355.371094 394.1875 C 355.183594 392.945312 354.75 391.730469 354.066406 390.542969 C 353.4375 389.453125 352.671875 388.53125 351.769531 387.773438 C 352.003906 386.046875 352.148438 384.398438 352.207031 382.824219 C 352.390625 378.988281 351.929688 376.921875 350.828125 376.625 C 349.644531 376.308594 348.175781 377.859375 346.417969 381.273438 Z M 346.417969 381.273438 " fill-opacity="1" fill-rule="nonzero"/><path fill="#e05848" d="M 261.160156 349.941406 C 260.058594 350.824219 259.21875 351.882812 258.640625 353.121094 C 258.0625 354.359375 257.773438 355.613281 257.78125 356.878906 C 256.125 357.570312 254.714844 358.308594 253.546875 359.09375 C 250.277344 361.15625 248.789062 362.722656 249.085938 363.792969 C 249.546875 364.894531 251.675781 365.226562 255.472656 364.789062 C 256.871094 364.554688 258.445312 364.273438 260.199219 363.941406 C 260.949219 364.847656 261.894531 365.621094 263.035156 366.269531 C 264.273438 366.847656 265.605469 367.148438 267.035156 367.175781 C 267.660156 368.734375 268.363281 370.097656 269.148438 371.261719 C 271.246094 374.796875 272.84375 376.332031 273.945312 375.875 C 275.113281 375.511719 275.414062 373.332031 274.84375 369.335938 C 274.609375 367.941406 274.359375 366.414062 274.09375 364.757812 C 274.867188 363.8125 275.53125 362.800781 276.078125 361.726562 C 276.65625 360.488281 277.058594 359.300781 277.28125 358.160156 C 278.804688 357.277344 280.261719 356.507812 281.65625 355.851562 C 285.027344 353.722656 286.480469 352.105469 286.023438 351.003906 C 285.726562 349.933594 283.628906 349.648438 279.730469 350.152344 C 278.105469 350.257812 276.417969 350.476562 274.664062 350.808594 C 273.914062 349.902344 272.917969 349.160156 271.683594 348.578125 C 270.542969 347.933594 269.421875 347.632812 268.316406 347.667969 C 267.464844 345.980469 266.660156 344.472656 265.90625 343.144531 C 263.847656 339.871094 262.230469 338.414062 261.0625 338.777344 C 259.960938 339.238281 259.675781 341.335938 260.214844 345.070312 C 260.351562 346.53125 260.664062 348.15625 261.160156 349.941406 Z M 261.160156 349.941406 " fill-opacity="1" fill-rule="nonzero"/><path fill="#b17d49" d="M 303.964844 399.703125 C 304.082031 399.351562 304.082031 399 303.964844 398.648438 L 297.988281 385.640625 C 297.988281 385.523438 297.929688 385.40625 297.8125 385.289062 L 288.324219 374.386719 C 288.207031 374.152344 287.914062 374.035156 287.445312 374.035156 C 287.09375 373.917969 286.742188 373.976562 286.390625 374.210938 L 284.105469 375.792969 C 283.871094 375.910156 283.695312 376.144531 283.578125 376.496094 C 283.578125 376.847656 283.636719 377.199219 283.753906 377.550781 L 290.082031 391.089844 C 290.199219 391.207031 290.257812 391.324219 290.257812 391.441406 L 299.394531 401.8125 C 299.628906 402.046875 299.980469 402.164062 300.449219 402.164062 C 300.800781 402.28125 301.152344 402.222656 301.503906 401.988281 L 303.4375 400.582031 C 303.671875 400.347656 303.847656 400.054688 303.964844 399.703125 Z M 303.964844 399.703125 " fill-opacity="1" fill-rule="nonzero"/><path fill="#af7b48" d="M 251.042969 315.417969 L 250.875 315.371094 C 249.570312 314.804688 248.296875 314.351562 247.050781 314.019531 C 235.703125 310.648438 223.28125 318.324219 209.777344 337.039062 L 199.882812 348.84375 L 209.847656 350.363281 L 223.457031 352.53125 L 229.398438 364.308594 L 242.554688 362.742188 L 253.414062 370.417969 L 257.804688 373.726562 C 256.667969 369.988281 257.304688 365.339844 259.71875 359.789062 L 264.878906 349.347656 C 267.988281 343.171875 268.203125 336.714844 265.519531 329.972656 C 262.808594 323.335938 257.984375 318.484375 251.042969 315.417969 Z M 251.042969 315.417969 " fill-opacity="1" fill-rule="nonzero"/><path fill="#2ecc71" d="M 253.414062 370.417969 L 242.554688 362.742188 L 229.398438 364.308594 L 223.457031 352.53125 L 209.847656 350.363281 C 202.371094 367.949219 197.378906 383.199219 194.867188 396.113281 C 200.179688 403.886719 207.699219 410.007812 217.417969 414.476562 C 230.097656 403.253906 242.097656 388.566406 253.414062 370.417969 Z M 253.414062 370.417969 " fill-opacity="1" fill-rule="nonzero"/><path fill="#2ecc71" d="M 243.378906 421.082031 C 242.304688 408.785156 239.664062 399.402344 235.453125 392.933594 L 200.375 392.8125 C 197.476562 392.765625 195.976562 394.0625 195.875 396.703125 L 195.886719 398.707031 C 194.65625 427.742188 202.398438 442.3125 219.105469 442.421875 C 225.015625 442.550781 231.0625 441.925781 237.253906 440.554688 C 241.359375 439.710938 243.4375 437.84375 243.488281 434.945312 L 243.542969 434.050781 C 243.519531 430.523438 243.460938 427.113281 243.375 423.8125 L 243.328125 423.980469 L 243.378906 421.082031 M 200.121094 405.304688 C 200.28125 404.253906 201.875 403.285156 204.902344 402.398438 C 207.816406 401.480469 211.378906 400.859375 215.589844 400.53125 C 219.882812 400.347656 223.433594 400.449219 226.242188 400.839844 C 229.246094 401.402344 230.679688 402.148438 230.550781 403.085938 C 230.503906 404.164062 229.023438 405.164062 226.109375 406.082031 C 223.167969 407.113281 219.53125 407.777344 215.207031 408.074219 C 210.996094 408.398438 207.445312 408.296875 204.554688 407.765625 C 201.554688 407.203125 200.074219 406.382812 200.121094 405.304688 Z M 200.121094 405.304688 " fill-opacity="1" fill-rule="nonzero"/><path fill="#29b665" d="M 204.902344 402.398438 C 201.875 403.285156 200.28125 404.253906 200.121094 405.304688 C 200.074219 406.382812 201.554688 407.203125 204.554688 407.765625 C 207.445312 408.296875 210.996094 408.398438 215.207031 408.074219 C 219.53125 407.777344 223.167969 407.113281 226.109375 406.082031 C 229.023438 405.164062 230.503906 404.164062 230.550781 403.085938 C 230.679688 402.148438 229.246094 401.402344 226.242188 400.839844 C 223.433594 400.449219 219.882812 400.347656 215.589844 400.53125 C 211.378906 400.859375 207.816406 401.480469 204.902344 402.398438 M 243.375 423.8125 C 253.027344 415.84375 250.386719 405.550781 235.453125 392.933594 C 239.664062 399.402344 242.304688 408.785156 243.378906 421.082031 L 243.328125 423.980469 Z M 243.375 423.8125 " fill-opacity="1" fill-rule="nonzero"/><path fill="#af7b48" d="M 355.652344 311.902344 L 355.824219 311.855469 C 357.125 311.289062 358.398438 310.835938 359.644531 310.503906 C 370.992188 307.132812 383.417969 314.808594 396.921875 333.523438 L 406.8125 345.328125 L 396.851562 346.847656 L 383.242188 349.015625 L 377.296875 360.792969 L 364.144531 359.226562 L 353.28125 366.902344 L 348.894531 370.210938 C 350.027344 366.472656 349.390625 361.824219 346.980469 356.273438 L 341.816406 345.832031 C 338.707031 339.65625 338.496094 333.199219 341.175781 326.457031 C 343.886719 319.820312 348.710938 314.96875 355.652344 311.902344 Z M 355.652344 311.902344 " fill-opacity="1" fill-rule="nonzero"/><path fill="#2ecc71" d="M 353.28125 366.902344 L 364.144531 359.226562 L 377.296875 360.792969 L 383.242188 349.015625 L 396.851562 346.847656 C 404.324219 364.433594 409.320312 379.683594 411.832031 392.597656 C 406.515625 400.371094 398.996094 406.492188 389.277344 410.957031 C 376.597656 399.738281 364.597656 385.050781 353.28125 366.902344 Z M 353.28125 366.902344 " fill-opacity="1" fill-rule="nonzero"/><path fill="#2ecc71" d="M 363.492188 419.148438 C 364.566406 406.851562 367.207031 397.46875 371.417969 391 L 406.5 390.878906 C 409.394531 390.832031 410.894531 392.128906 410.996094 394.769531 L 410.988281 396.773438 C 412.214844 425.808594 404.472656 440.378906 387.765625 440.488281 C 381.855469 440.617188 375.808594 439.992188 369.617188 438.621094 C 365.511719 437.777344 363.433594 435.910156 363.386719 433.011719 L 363.328125 432.117188 C 363.355469 428.589844 363.410156 425.175781 363.496094 421.878906 L 363.542969 422.046875 L 363.492188 419.148438 M 406.75 403.371094 C 406.589844 402.320312 404.996094 401.351562 401.96875 400.464844 C 399.054688 399.546875 395.492188 398.925781 391.28125 398.597656 C 386.988281 398.414062 383.4375 398.515625 380.628906 398.90625 C 377.628906 399.46875 376.191406 400.214844 376.320312 401.152344 C 376.367188 402.230469 377.847656 403.230469 380.761719 404.148438 C 383.707031 405.179688 387.339844 405.84375 391.664062 406.140625 C 395.875 406.464844 399.425781 406.363281 402.316406 405.832031 C 405.320312 405.269531 406.796875 404.449219 406.75 403.371094 Z M 406.75 403.371094 " fill-opacity="1" fill-rule="nonzero"/><path fill="#29b665" d="M 401.96875 400.464844 C 404.996094 401.351562 406.589844 402.320312 406.75 403.371094 C 406.796875 404.449219 405.320312 405.269531 402.316406 405.832031 C 399.425781 406.363281 395.875 406.464844 391.664062 406.140625 C 387.339844 405.84375 383.707031 405.179688 380.761719 404.148438 C 377.847656 403.230469 376.367188 402.230469 376.320312 401.152344 C 376.191406 400.214844 377.628906 399.46875 380.628906 398.90625 C 383.4375 398.515625 386.988281 398.414062 391.28125 398.597656 C 395.492188 398.925781 399.054688 399.546875 401.96875 400.464844 M 363.496094 421.878906 C 353.84375 413.910156 356.484375 403.617188 371.417969 391 C 367.207031 397.46875 364.566406 406.851562 363.492188 419.148438 L 363.542969 422.046875 Z M 363.496094 421.878906 " fill-opacity="1" fill-rule="nonzero"/><path fill="#25a65b" d="M 270.046875 323.230469 L 303.789062 339.230469 L 337.527344 323.230469 Z M 270.046875 323.230469 " fill-opacity="1" fill-rule="nonzero"/><path fill="#2ecc71" d="M 371.621094 234.628906 C 370.097656 224.199219 364.121094 218.984375 353.695312 218.984375 L 247.027344 218.984375 C 236.71875 218.984375 230.742188 224.316406 229.101562 234.980469 C 225.589844 259.125 225.589844 283.265625 229.101562 307.410156 C 230.742188 317.957031 236.71875 323.230469 247.027344 323.230469 L 353.695312 323.230469 C 364.121094 323.230469 370.15625 317.898438 371.792969 307.234375 C 375.425781 283.558594 375.367188 259.359375 371.621094 234.628906 Z M 371.621094 234.628906 " fill-opacity="1" fill-rule="nonzero"/><path fill="#ffffff" d="M 278.835938 287.542969 C 282.464844 287.542969 285.453125 286.195312 287.796875 283.5 C 289.949219 281.347656 291.179688 278.828125 291.488281 275.941406 L 266.007812 275.941406 C 266.394531 278.828125 267.566406 281.347656 269.519531 283.5 C 272.097656 286.195312 275.203125 287.542969 278.835938 287.542969 M 344.207031 287.542969 C 347.835938 287.542969 350.824219 286.195312 353.167969 283.5 C 355.320312 281.347656 356.550781 278.828125 356.859375 275.941406 L 331.378906 275.941406 C 331.765625 278.828125 332.9375 281.347656 334.890625 283.5 C 337.46875 286.195312 340.574219 287.542969 344.207031 287.542969 Z M 344.207031 287.542969 " fill-opacity="1" fill-rule="nonzero"/><path fill="#7e8991" d="M 295.527344 259.242188 C 295.410156 258.1875 295 257.367188 294.296875 256.78125 C 293.59375 256.078125 292.773438 255.785156 291.839844 255.902344 C 282.582031 256.722656 273.855469 256.253906 265.65625 254.496094 C 264.601562 254.261719 263.664062 254.378906 262.84375 254.847656 C 262.023438 255.316406 261.554688 256.078125 261.4375 257.132812 C 261.203125 258.070312 261.320312 258.949219 261.789062 259.769531 C 262.257812 260.589844 263.019531 261.117188 264.074219 261.351562 C 272.859375 263.226562 282.289062 263.753906 292.367188 262.933594 C 293.300781 262.816406 294.121094 262.40625 294.824219 261.703125 C 295.410156 261 295.644531 260.179688 295.527344 259.242188 M 358.964844 255.023438 C 358.148438 254.554688 357.210938 254.4375 356.15625 254.671875 C 347.953125 256.429688 339.226562 256.898438 329.972656 256.078125 C 329.035156 255.960938 328.214844 256.253906 327.511719 256.957031 C 326.808594 257.542969 326.398438 258.363281 326.28125 259.417969 C 326.164062 260.355469 326.398438 261.175781 326.984375 261.878906 C 327.6875 262.582031 328.507812 262.992188 329.445312 263.109375 C 339.519531 263.929688 348.949219 263.402344 357.738281 261.527344 C 358.789062 261.292969 359.550781 260.765625 360.019531 259.945312 C 360.488281 259.125 360.605469 258.246094 360.371094 257.308594 C 360.253906 256.253906 359.785156 255.492188 358.964844 255.023438 Z M 358.964844 255.023438 " fill-opacity="1" fill-rule="nonzero"/><path fill="#7f7058" d="M 331.203125 297.039062 C 331.4375 296.101562 331.378906 295.164062 331.027344 294.226562 L 321.007812 301.257812 L 328.566406 310.222656 L 328.566406 310.046875 C 329.269531 309.34375 329.679688 308.464844 329.796875 307.410156 Z M 331.203125 297.039062 " fill-opacity="1" fill-rule="nonzero"/><path fill="#ffffff" d="M 289.554688 295.632812 C 288.617188 296.570312 288.148438 297.683594 288.148438 298.972656 C 288.03125 300.261719 288.324219 301.433594 289.027344 302.488281 C 289.847656 303.542969 290.902344 304.246094 292.191406 304.597656 L 323.292969 311.804688 C 324.230469 312.039062 325.167969 312.039062 326.105469 311.804688 C 327.042969 311.453125 327.863281 310.925781 328.566406 310.222656 L 321.007812 301.257812 L 331.027344 294.226562 C 330.910156 294.109375 330.851562 293.992188 330.851562 293.875 C 330.382812 292.820312 329.621094 292.058594 328.566406 291.589844 C 327.628906 291.003906 326.632812 290.769531 325.578125 290.886719 L 292.890625 294.050781 C 291.488281 294.167969 290.375 294.695312 289.554688 295.632812 Z M 289.554688 295.632812 " fill-opacity="1" fill-rule="nonzero"/><path fill="#28b162" d="M 249.6875 286.476562 C 249.621094 286.863281 249.65625 287.21875 249.785156 287.542969 L 256.191406 301.042969 C 256.257812 301.171875 256.320312 301.300781 256.386719 301.429688 L 265.511719 311.722656 C 265.769531 312.046875 266.09375 312.210938 266.480469 312.210938 C 266.867188 312.273438 267.226562 312.210938 267.546875 312.015625 L 269.488281 310.558594 C 269.75 310.363281 269.941406 310.105469 270.074219 309.78125 C 270.136719 309.394531 270.105469 309.039062 269.976562 308.714844 L 264.152344 295.605469 C 264.085938 295.539062 264.023438 295.441406 263.957031 295.3125 L 254.445312 284.4375 C 254.25 284.179688 253.957031 284.015625 253.570312 283.953125 C 253.183594 283.886719 252.828125 283.953125 252.503906 284.144531 L 250.269531 285.699219 C 250.011719 285.894531 249.816406 286.152344 249.6875 286.476562 Z M 249.6875 286.476562 " fill-opacity="1" fill-rule="nonzero"/><path fill="#717b83" d="M 261.261719 233.398438 L 269.871094 218.984375 L 250.542969 238.671875 L 255.460938 243.070312 L 261.261719 233.398438 M 363.535156 241.839844 L 335.066406 246.9375 L 337.175781 251.507812 L 363.535156 241.839844 M 373.199219 281.566406 L 374.429688 286.664062 C 393.328125 258.128906 399.773438 226.191406 393.761719 190.859375 L 374.957031 190.859375 C 383.714844 221.125 383.128906 251.359375 373.199219 281.566406 M 278.660156 185.054688 L 288.851562 195.253906 C 309.109375 183.132812 331.308594 174.871094 355.453125 170.464844 C 334.914062 167.351562 315 168.582031 295.703125 174.15625 L 305.722656 160.445312 C 284.113281 156.648438 266.660156 161.6875 253.351562 175.5625 L 240.523438 188.570312 L 230.332031 184.175781 L 213.636719 223.203125 C 215.644531 228.449219 217.109375 233.488281 218.03125 238.320312 Z M 278.660156 185.054688 " fill-opacity="1" fill-rule="nonzero"/><path fill="#000000" d="M 311.695312 243.421875 L 305.722656 226.894531 L 269.871094 218.984375 L 261.261719 233.398438 Z M 311.695312 243.421875 " fill-opacity="0.102" fill-rule="nonzero"/><path fill="#6b747b" d="M 374.957031 190.859375 L 366.171875 190.859375 L 372.671875 174.15625 C 366.886719 172.613281 361.144531 171.382812 355.453125 170.464844 C 331.308594 174.871094 309.109375 183.132812 288.851562 195.253906 L 278.660156 185.054688 L 218.03125 238.320312 C 220.234375 248.742188 220.058594 258.238281 217.503906 266.800781 C 213.898438 279.386719 218.175781 290.695312 230.332031 300.730469 L 247.027344 272.601562 L 239.648438 249.75 L 250.542969 238.671875 L 269.871094 218.984375 L 305.722656 226.894531 L 311.695312 243.421875 L 314.332031 250.628906 L 335.066406 246.9375 L 363.535156 241.839844 L 373.199219 281.566406 C 383.128906 251.359375 383.714844 221.125 374.957031 190.859375 Z M 374.957031 190.859375 " fill-opacity="1" fill-rule="nonzero"/></svg>