<?xml version="1.0" encoding="UTF-8"?>
<svg id="Layer_2" xmlns="http://www.w3.org/2000/svg" viewBox="0 0 49.75 20">
  <defs>
    <style>
      .cls-1 {
        fill: #a69b81;
      }

      .cls-2 {
        fill: #ecdcb8;
      }

      .cls-3 {
        fill: #ccc;
      }

      .cls-4 {
        fill: #d7c9a8;
      }
    </style>
  </defs>
  <g id="svg1571">
    <g id="g11">
      <g id="use1565">
        <g id="Layer0_296_FILL">
          <path id="path1245" class="cls-1" d="M10,0c-.57,0-1.03.2-1.4.6L.6,8.6c-.4.37-.6.83-.6,1.4s.2,1.05.6,1.45l8,8c.37.37.83.55,1.4.55h11.75c3.43,0,5.68-1.42,6.75-4.25.1-.2.18-.42.25-.65,0-.03.02-.07.05-.1h5.95c.57,0,1.05-.18,1.45-.55.37-.4.55-.88.55-1.45v-1.6l3.35,1.45c.27.1.55.15.85.15l6.85-.1c.53,0,1-.2,1.4-.6.37-.4.55-.87.55-1.4v-5.15c0-.53-.18-1-.55-1.4-.4-.4-.87-.6-1.4-.6l-7.4-.2c-.23,0-.47.05-.7.15l-3.75,1.3h-7.15c-1.2-3.33-3.55-5-7.05-5h-11.75M47.75,10.9l-6.85.1-4.65-2h-8.65c.03.67.03,1.33,0,2h7.15v2h-7.5c-.1.47-.23.95-.4,1.45-.07.2-.13.38-.2.55-.8,2-2.43,3-4.9,3h-11.75L2,10,10,2h11.75c2.67,0,4.42,1.32,5.25,3.95.1.33.2.68.3,1.05h8.95l4.1-1.45,7.4.2v5.15Z"/>
          <path id="path1246" class="cls-3" d="M34.75,13v-2h-7.15l-.35,2h7.5Z"/>
          <path id="path1247" class="cls-2" d="M36.25,9v-2h-8.95c-.1-.37-.2-.72-.3-1.05-.83-2.63-2.58-3.95-5.25-3.95h-11.75L2,10l8,8h11.75c2.47,0,4.1-1,4.9-3,.07-.17.13-.35.2-.55.17-.5.3-.98.4-1.45l.35-2c.03-.67.03-1.33,0-2h8.65M20.9,5.2c1.6,0,2.65.78,3.15,2.35.5,1.63.47,3.33-.1,5.1-.43,1.43-1.45,2.15-3.05,2.15h-5.65c-.23,0-.43-.02-.6-.05-1.17-.2-1.75-.98-1.75-2.35v-4.8c0-1.37.58-2.15,1.75-2.35.17-.03.37-.05.6-.05h5.65Z"/>
          <path id="path1248" class="cls-4" d="M24.05,7.55c-.5-1.57-1.55-2.35-3.15-2.35h-5.65c-.23,0-.43.02-.6.05-1.17.2-1.75.98-1.75,2.35v4.8c0,1.37.58,2.15,1.75,2.35.17.03.37.05.6.05h5.65c1.6,0,2.62-.72,3.05-2.15.57-1.77.6-3.47.1-5.1M40.9,11l6.85-.1v-5.15l-7.4-.2-4.1,1.45v2l4.65,2Z"/>
        </g>
      </g>
    </g>
  </g>
</svg>