<?xml version="1.0" encoding="UTF-8"?>
<svg id="Layer_2" xmlns="http://www.w3.org/2000/svg" viewBox="0 0 47 20">
  <defs>
    <style>
      .cls-1 {
        fill: #1f8a4c;
      }

      .cls-2 {
        fill: #2ecc71;
      }

      .cls-3 {
        fill: #999;
      }

      .cls-4 {
        fill: #747474;
      }

      .cls-5 {
        fill: #ccc;
      }
    </style>
  </defs>
  <g id="svg1571">
    <g id="g16">
      <g id="use1560">
        <g id="Layer0_291_FILL">
          <path id="path1227" class="cls-2" d="M36,9v-2h-12.45c-.1-.37-.2-.72-.3-1.05-.83-2.63-2.58-3.95-5.25-3.95H6c-2.67,0-4,1.33-4,4v8c0,2.67,1.33,4,4,4h12c2.47,0,4.1-1,4.9-3,.07-.17.13-.35.2-.55.17-.5.3-.98.4-1.45l.35-2c.03-.67.03-1.33,0-2h12.15M20.3,7.55c.5,1.63.47,3.33-.1,5.1-.43,1.43-1.45,2.15-3.05,2.15h-5.65c-.23,0-.43-.02-.6-.05-1.17-.2-1.75-.98-1.75-2.35v-4.8c0-1.37.58-2.15,1.75-2.35.17-.03.37-.05.6-.05h5.65c1.6,0,2.65.78,3.15,2.35Z"/>
          <path id="path1228" class="cls-5" d="M20.2,12.65c.57-1.77.6-3.47.1-5.1-.5-1.57-1.55-2.35-3.15-2.35h-5.65c-.23,0-.43.02-.6.05-1.17.2-1.75.98-1.75,2.35v4.8c0,1.37.58,2.15,1.75,2.35.17.03.37.05.6.05h5.65c1.6,0,2.62-.72,3.05-2.15M31,13v-2h-7.15l-.35,2h7.5Z"/>
          <path id="path1229" class="cls-1" d="M33,11h1.7l1.3-2h-12.15c.03.67.03,1.33,0,2h9.15M18,0H6C2,0,0,2,0,6v8c0,4,2,6,6,6h12c3.67-.03,6-1.68,7-4.95v.05s.02-.07.05-.1h-2.15c-.8,2-2.43,3-4.9,3H6c-2.67,0-4-1.33-4-4V6c0-2.67,1.33-4,4-4h12c2.67,0,4.42,1.32,5.25,3.95.1.33.2.68.3,1.05h12.45l-.7-2h-10.25c-1.2-3.33-3.55-5-7.05-5Z"/>
          <path id="path1230" class="cls-3" d="M31,11v2h-7.5c-.1.47-.23.95-.4,1.45-.07.2-.13.38-.2.55h8.1c.57,0,1.05-.18,1.45-.55.37-.4.55-.88.55-1.45v-2h-2M44.9,10.75l.1-4.75-7.25-.45-1.75,1.45v2l2,2,6.9-.25Z"/>
          <path id="path1231" class="cls-4" d="M46.5,4.65c-.37-.4-.82-.62-1.35-.65l-7.25-.45c-.53-.03-1,.12-1.4.45l-1.2,1,.7,2,1.75-1.45,7.25.45-.1,4.75-6.9.25-2-2-1.3,2h.45l1.45,1.45c.2.17.43.3.7.4.23.1.5.15.8.15l6.9-.25c.5-.03.95-.23,1.35-.6.37-.37.55-.82.55-1.35l.1-4.75c0-.53-.17-1-.5-1.4Z"/>
        </g>
      </g>
    </g>
  </g>
</svg>