<?xml version="1.0" encoding="UTF-8"?>
<svg id="Layer_2" xmlns="http://www.w3.org/2000/svg" viewBox="0 0 44 57">
  <defs>
    <style>
      .cls-1 {
        fill: #727272;
      }

      .cls-2 {
        fill: #af392d;
      }

      .cls-3 {
        fill: #9f9f9f;
      }

      .cls-4 {
        fill: #d24536;
      }

      .cls-5 {
        fill: #e74c3c;
      }

      .cls-6 {
        fill: #939393;
      }

      .cls-7 {
        fill: #adadad;
      }
    </style>
  </defs>
  <g id="svg1571">
    <g id="g54">
      <g id="use1534">
        <g id="Layer0_271_FILL">
          <path id="path1149" class="cls-5" d="M26,55h8l4-8-12,8M10,55h8l-12-8,4,8M26,23h-8L2,31v16h40v-16l-16-8Z"/>
          <path id="path1150" class="cls-4" d="M38,47H6l12,8h8l12-8M42,31l-6-6-2-2h-8l16,8M18,23h-8l-2,2-6,6,16-8Z"/>
          <path id="path1151" class="cls-2" d="M44,31c0-.57-.18-1.03-.55-1.4l-7.45-7.45v2.85l6,6v16h-4l-4,8H10l-4-8H2v-16l6-6v-2.85L.6,29.6c-.4.37-.6.83-.6,1.4v16c0,.57.2,1.05.6,1.45.37.37.83.55,1.4.55h2.75l3.45,6.9c.17.33.42.6.75.8.33.2.68.3,1.05.3h24c.37,0,.72-.1,1.05-.3.33-.2.58-.47.75-.8l3.45-6.9h2.75c.57,0,1.05-.18,1.45-.55.37-.4.55-.88.55-1.45v-16Z"/>
          <path id="path1152" class="cls-7" d="M17.5,19V2h-3v17h3M29.5,2h-3v17h3V2Z"/>
          <path id="path1153" class="cls-3" d="M14.5,2h-2.5v17h2.5V2M20,2h-2.5v17h2.5V2M26.5,19V2h-2.5v17h2.5M32,2h-2.5v17h2.5V2Z"/>
          <path id="path1154" class="cls-6" d="M29.5,19H10v4h24v-4h-4.5Z"/>
          <path id="path1155" class="cls-1" d="M29.5,2h2.5v17h2v4l2,2v-6c0-.57-.18-1.03-.55-1.4-.4-.4-.88-.6-1.45-.6V2c0-.57-.18-1.03-.55-1.4-.4-.4-.88-.6-1.45-.6h-8c-.57,0-1.03.2-1.4.6-.39.36-.59.79-.6,1.3,0-.51-.19-.94-.55-1.3-.4-.4-.88-.6-1.45-.6h-8c-.57,0-1.03.2-1.4.6-.4.37-.6.83-.6,1.4v15c-.57,0-1.03.2-1.4.6-.4.37-.6.83-.6,1.4v6l2-2v-4h2V2h8v17h4V2h5.5Z"/>
        </g>
      </g>
    </g>
  </g>
</svg>