<?xml version="1.0" encoding="UTF-8"?>
<svg id="Layer_2" xmlns="http://www.w3.org/2000/svg" viewBox="0 0 38 53">
  <defs>
    <style>
      .cls-1 {
        fill: #727272;
      }

      .cls-2 {
        fill: #af392d;
      }

      .cls-3 {
        fill: #9f9f9f;
      }

      .cls-4 {
        fill: #e74c3c;
      }

      .cls-5 {
        fill: #939393;
      }

      .cls-6 {
        fill: #bdd6db;
      }
    </style>
  </defs>
  <g id="svg1571">
    <g id="g75">
      <g id="g74">
        <g id="use1514">
          <g id="Layer0_251_FILL">
            <path id="path1069" class="cls-3" d="M36,30v-4H2v4h34M36,37v-3H2v3l8,8h18l8-8M23.2,14H2v8h34v-8h-12.8Z"/>
            <path id="path1070" class="cls-5" d="M28,51v-6H10v6h18M36,34v-4H2v4h34M36,26v-4H2v4h34Z"/>
            <path id="path1071" class="cls-1" d="M9.2,14l-.15-2H2c-.57,0-1.03.2-1.4.6-.4.37-.6.83-.6,1.4v23c0,.57.2,1.05.6,1.45l7.4,7.4v5.15c0,.57.2,1.05.6,1.45.37.37.83.55,1.4.55h18c.57,0,1.05-.18,1.45-.55.37-.4.55-.88.55-1.45v-5.15l7.45-7.4c.37-.4.55-.88.55-1.45V14c0-.57-.18-1.03-.55-1.4-.4-.4-.85-.6-1.35-.6h-7.15l-.1,2h7.15v23l-8,8v6H10v-6l-8-8V14h7.2M14.95,12l-.1,2h8.35l-.15-2h-8.1Z"/>
            <path id="path1072" class="cls-4" d="M23,11.35l.05.65h5.9l.05-.65c-.03-.73-.08-1.43-.15-2.1-.17-1.4-.43-2.65-.8-3.75-.5-1.4-1.18-2.57-2.05-3.5-.87.93-1.53,2.1-2,3.5-.4,1.1-.68,2.35-.85,3.75-.07.67-.12,1.37-.15,2.1M15,11.35c-.03-.73-.08-1.43-.15-2.1-.17-1.4-.43-2.65-.8-3.75-.5-1.4-1.18-2.57-2.05-3.5-.87.93-1.53,2.1-2,3.5-.4,1.1-.68,2.35-.85,3.75-.07.67-.12,1.37-.15,2.1l.05.65h5.9l.05-.65Z"/>
            <path id="path1073" class="cls-6" d="M23.05,12l.15,2h5.65l.1-2h-5.9M14.85,14l.1-2h-5.9l.15,2h5.65Z"/>
            <path id="path1074" class="cls-2" d="M10.55.65c-.6.57-1.12,1.25-1.55,2.05-.47.83-.85,1.77-1.15,2.8-.07.23-.13.48-.2.75-.23.9-.4,1.88-.5,2.95v.05c-.07.63-.12,1.32-.15,2.05v.2l.05.5h2l-.05-.65c.03-.73.08-1.43.15-2.1.17-1.4.45-2.65.85-3.75.47-1.4,1.13-2.57,2-3.5.87.93,1.55,2.1,2.05,3.5.37,1.1.63,2.35.8,3.75.07.67.12,1.37.15,2.1l-.05.65h2.05v-.7c-.03-.73-.08-1.42-.15-2.05-.1-1.07-.27-2.07-.5-3-.07-.27-.13-.52-.2-.75-.3-1.03-.68-1.97-1.15-2.8-.43-.8-.93-1.48-1.5-2.05-.27-.3-.58-.48-.95-.55-.37-.13-.73-.13-1.1,0-.37.07-.67.25-.9.55M29,2.7c-.43-.8-.93-1.48-1.5-2.05-.27-.3-.58-.48-.95-.55-.37-.13-.73-.13-1.1,0-.37.07-.67.25-.9.55-.6.57-1.12,1.25-1.55,2.05-.47.83-.85,1.77-1.15,2.8-.33,1.13-.57,2.38-.7,3.75-.07.63-.12,1.32-.15,2.05v.2l.05.5h2l-.05-.65c.03-.73.08-1.43.15-2.1.17-1.4.45-2.65.85-3.75.47-1.4,1.13-2.57,2-3.5.87.93,1.55,2.1,2.05,3.5.37,1.1.63,2.35.8,3.75.07.67.12,1.37.15,2.1l-.05.65h2.05v-.7c-.03-.73-.08-1.42-.15-2.05-.13-1.37-.37-2.62-.7-3.75-.3-1.03-.68-1.97-1.15-2.8Z"/>
          </g>
        </g>
      </g>
    </g>
  </g>
</svg>